<svg width="309" height="328" viewBox="0 0 309 328" fill="none" xmlns="http://www.w3.org/2000/svg">
<g filter="url(#filter0_d)">
<path d="M122.6 234C123.4 234.6 123.8 235.567 123.8 236.9C123.8 238.233 123.367 239.7 122.5 241.3C121.633 242.833 120.533 244.133 119.2 245.2C117.867 246.2 116.567 246.7 115.3 246.7C112.5 246.7 110.7 244.133 109.9 239C109.633 237.133 109.5 235.033 109.5 232.7C109.5 231.5 109.567 229.633 109.7 227.1L109.8 221.5C109.8 218.567 109.867 214.167 110 208.3C110.2 202.367 110.3 196.467 110.3 190.6C108.633 195.067 106.533 201.2 104 209C103.267 211.267 102.533 213.133 101.8 214.6C101.067 216.067 100 217.367 98.6 218.5C97.2667 219.633 95.9333 220.2 94.6 220.2C92.0667 220.2 89.9667 218.5 88.3 215.1C86.6333 211.7 85.2 207.867 84 203.6L83.1 211C82.2333 217.667 81.4333 223 80.7 227C80.0333 231 79.0333 235 77.7 239C76.7 242 75.5333 244.567 74.2 246.7C72.9333 248.767 71.2667 249.8 69.2 249.8C66.8667 249.8 65.7 248.6 65.7 246.2C65.7 244.533 66.2 242.633 67.2 240.5C67.1333 240.633 67.0667 240.767 67 240.9C67 240.967 66.9667 241 66.9 241L67.5 239.1C68.1 237.1 68.6333 234.733 69.1 232C70.1 226.933 71.0333 221.233 71.9 214.9L74.3 197.4C75.0333 191.133 75.8333 185.1 76.7 179.3C77.1667 175.9 77.6667 173.233 78.2 171.3C78.8 169.3 79.8667 167.4 81.4 165.6C82.1333 164.733 82.9667 164.033 83.9 163.5C84.9 162.967 85.8333 162.7 86.7 162.7C88.1667 162.7 89.2667 163.367 90 164.7C90.5333 165.7 90.8667 167.333 91 169.6L91.3 172C91.7667 174.467 92.3667 177.167 93.1 180.1C94.9 187.3 96.5333 192.833 98 196.7C98.5333 195.1 98.8667 194.133 99 193.8C100.867 188.333 102.533 183.8 104 180.2C105.533 176.6 107.367 173.267 109.5 170.2C110.5 168.8 111.633 167.6 112.9 166.6C114.167 165.533 115.433 165 116.7 165C118.1 165 119.1 165.5 119.7 166.5C120.367 167.433 120.767 168.4 120.9 169.4C121.1 170.333 121.3 171.933 121.5 174.2C121.767 177.2 121.9 180.667 121.9 184.6C121.9 187.467 121.767 191.833 121.5 197.7C121.433 198.9 121.367 200.4 121.3 202.2C121.233 204 121.2 206.1 121.2 208.5L121.1 215.3C121.1 217.5 121.167 220.733 121.3 225L121.2 228.2C121.2 231.267 121.667 233.2 122.6 234ZM177.246 198.6C178.246 198.6 179.046 198.967 179.646 199.7C180.313 200.433 180.646 201.467 180.646 202.8C180.646 203.467 180.513 204.333 180.246 205.4C179.913 207 179.279 208.5 178.346 209.9C177.413 211.233 176.313 212.3 175.046 213.1C174.246 213.567 173.446 213.9 172.646 214.1C171.846 214.233 170.846 214.367 169.646 214.5L168.946 214.6H168.646L168.946 222.2C169.479 222.067 169.846 222 170.046 222C170.379 222 170.746 222.067 171.146 222.2C172.279 222.4 173.079 223 173.546 224C173.946 224.733 174.146 225.633 174.146 226.7C174.146 227.3 174.079 228.067 173.946 229C173.879 229.2 173.846 229.467 173.846 229.8C173.579 232.2 173.113 234.367 172.446 236.3C171.846 238.233 170.913 240.033 169.646 241.7C166.713 245.3 163.913 247.1 161.246 247.1C160.779 247.1 160.413 247.067 160.146 247C158.613 246.667 157.546 245.867 156.946 244.6C156.413 243.333 156.046 241.9 155.846 240.3C155.313 236.233 155.046 231.633 155.046 226.5L155.146 218.6V217.8L155.246 216.2L151.346 216.9C149.346 217.367 147.546 217.867 145.946 218.4L145.146 218.8C144.346 224.067 143.846 228.1 143.646 230.9C143.513 231.967 143.446 233.567 143.446 235.7C143.513 235.967 143.546 236.433 143.546 237.1C143.546 237.7 143.513 238.167 143.446 238.5C143.446 239.767 143.079 240.967 142.346 242.1C141.679 243.167 140.779 243.967 139.646 244.5C138.779 244.9 137.846 245.1 136.846 245.1C135.046 245.1 133.513 244.5 132.246 243.3C130.779 241.9 130.046 240.033 130.046 237.7L130.146 236.2C130.346 232.733 130.713 229.3 131.246 225.9C131.846 222.433 132.646 218.3 133.646 213.5C134.446 209.233 135.013 206.033 135.346 203.9C136.279 198.233 136.946 193.067 137.346 188.4C137.613 185.467 137.779 182.767 137.846 180.3V179.9C137.913 178.5 138.046 177.333 138.246 176.4C138.513 175.467 139.046 174.6 139.846 173.8C140.979 172.667 142.379 172.1 144.046 172.1C145.779 172.1 147.213 172.667 148.346 173.8C149.479 174.933 150.046 176.533 150.046 178.6C150.046 179.667 150.013 180.433 149.946 180.9L149.846 181.4L149.246 188.8C149.046 192.733 148.713 196.233 148.246 199.3C148.113 200.633 147.846 202.367 147.446 204.5C148.379 204.167 149.946 203.7 152.146 203.1L152.746 202.9C153.746 202.7 154.613 202.467 155.346 202.2C155.346 197.467 155.313 193.933 155.246 191.6V191.4C155.246 185.467 155.313 181.033 155.446 178.1C155.646 173.567 157.346 170.167 160.546 167.9C161.679 167.1 162.846 166.7 164.046 166.7C165.113 166.7 166.013 167.067 166.746 167.8C167.546 168.8 167.946 170.1 167.946 171.7C167.946 172.367 167.879 173.233 167.746 174.3C167.679 174.567 167.646 174.933 167.646 175.4C167.579 176.133 167.546 177.3 167.546 178.9C167.546 180.1 167.613 181.967 167.746 184.5L167.846 187.3L167.946 191.4L168.246 199.8L175.946 198.8L176.646 198.7L177.246 198.6ZM237.541 234C238.341 234.6 238.741 235.567 238.741 236.9C238.741 238.233 238.308 239.7 237.441 241.3C236.575 242.833 235.475 244.133 234.141 245.2C232.808 246.2 231.508 246.7 230.241 246.7C227.441 246.7 225.641 244.133 224.841 239C224.575 237.133 224.441 235.033 224.441 232.7C224.441 231.5 224.508 229.633 224.641 227.1L224.741 221.5C224.741 218.567 224.808 214.167 224.941 208.3C225.141 202.367 225.241 196.467 225.241 190.6C223.575 195.067 221.475 201.2 218.941 209C218.208 211.267 217.475 213.133 216.741 214.6C216.008 216.067 214.941 217.367 213.541 218.5C212.208 219.633 210.875 220.2 209.541 220.2C207.008 220.2 204.908 218.5 203.241 215.1C201.575 211.7 200.141 207.867 198.941 203.6L198.041 211C197.175 217.667 196.375 223 195.641 227C194.975 231 193.975 235 192.641 239C191.641 242 190.475 244.567 189.141 246.7C187.875 248.767 186.208 249.8 184.141 249.8C181.808 249.8 180.641 248.6 180.641 246.2C180.641 244.533 181.141 242.633 182.141 240.5C182.075 240.633 182.008 240.767 181.941 240.9C181.941 240.967 181.908 241 181.841 241L182.441 239.1C183.041 237.1 183.575 234.733 184.041 232C185.041 226.933 185.975 221.233 186.841 214.9L189.241 197.4C189.975 191.133 190.775 185.1 191.641 179.3C192.108 175.9 192.608 173.233 193.141 171.3C193.741 169.3 194.808 167.4 196.341 165.6C197.075 164.733 197.908 164.033 198.841 163.5C199.841 162.967 200.775 162.7 201.641 162.7C203.108 162.7 204.208 163.367 204.941 164.7C205.475 165.7 205.808 167.333 205.941 169.6L206.241 172C206.708 174.467 207.308 177.167 208.041 180.1C209.841 187.3 211.475 192.833 212.941 196.7C213.475 195.1 213.808 194.133 213.941 193.8C215.808 188.333 217.475 183.8 218.941 180.2C220.475 176.6 222.308 173.267 224.441 170.2C225.441 168.8 226.575 167.6 227.841 166.6C229.108 165.533 230.375 165 231.641 165C233.041 165 234.041 165.5 234.641 166.5C235.308 167.433 235.708 168.4 235.841 169.4C236.041 170.333 236.241 171.933 236.441 174.2C236.708 177.2 236.841 180.667 236.841 184.6C236.841 187.467 236.708 191.833 236.441 197.7C236.375 198.9 236.308 200.4 236.241 202.2C236.175 204 236.141 206.1 236.141 208.5L236.041 215.3C236.041 217.5 236.108 220.733 236.241 225L236.141 228.2C236.141 231.267 236.608 233.2 237.541 234Z" fill="white"/>
<path d="M122.6 234L121.949 234.759L121.974 234.78L122 234.8L122.6 234ZM122.5 241.3L123.371 241.792L123.375 241.784L123.379 241.776L122.5 241.3ZM119.2 245.2L119.8 246L119.813 245.991L119.825 245.981L119.2 245.2ZM109.9 239L108.91 239.141L108.912 239.154L109.9 239ZM109.7 227.1L110.699 227.153L110.7 227.135L110.7 227.118L109.7 227.1ZM109.8 221.5L110.8 221.518L110.8 221.509V221.5H109.8ZM110 208.3L109.001 208.266L109 208.277L110 208.3ZM110.3 190.6H111.3L109.363 190.25L110.3 190.6ZM104 209L103.049 208.691L103.049 208.692L104 209ZM101.8 214.6L100.906 214.153L100.906 214.153L101.8 214.6ZM98.6 218.5L97.9708 217.723L97.9615 217.73L97.9524 217.738L98.6 218.5ZM88.3 215.1L89.1979 214.66L89.1979 214.66L88.3 215.1ZM84 203.6L84.9627 203.329L83.0073 203.479L84 203.6ZM83.1 211L84.0917 211.129L84.0927 211.121L83.1 211ZM80.7 227L79.7164 226.82L79.7149 226.828L79.7136 226.836L80.7 227ZM77.7 239L78.6487 239.316L78.6487 239.316L77.7 239ZM74.2 246.7L73.352 246.17L73.3474 246.177L74.2 246.7ZM67.2 240.5L68.1055 240.924L66.3056 240.053L67.2 240.5ZM67 240.9L66.1056 240.453L66 240.664V240.9H67ZM66.9 241L65.9464 240.699L65.5355 242H66.9V241ZM67.5 239.1L68.4536 239.401L68.4558 239.394L68.4578 239.387L67.5 239.1ZM69.1 232L68.1189 231.806L68.1164 231.819L68.1143 231.832L69.1 232ZM71.9 214.9L70.9093 214.764L70.9092 214.764L71.9 214.9ZM74.3 197.4L75.2907 197.536L75.2921 197.526L75.2932 197.516L74.3 197.4ZM76.7 179.3L77.6891 179.448L77.6907 179.436L76.7 179.3ZM78.2 171.3L77.2422 171.013L77.239 171.023L77.236 171.034L78.2 171.3ZM81.4 165.6L82.1612 166.248L82.1634 166.246L81.4 165.6ZM83.9 163.5L83.4294 162.618L83.4165 162.625L83.4039 162.632L83.9 163.5ZM90 164.7L90.8824 164.229L90.8762 164.218L90 164.7ZM91 169.6L90.0017 169.659L90.0037 169.691L90.0077 169.724L91 169.6ZM91.3 172L90.3077 172.124L90.3116 172.155L90.3174 172.186L91.3 172ZM93.1 180.1L92.1299 180.343L92.1299 180.343L93.1 180.1ZM98 196.7L97.065 197.055L98.0608 199.68L98.9487 197.016L98 196.7ZM99 193.8L99.9285 194.171L99.938 194.147L99.9464 194.123L99 193.8ZM104 180.2L103.08 179.808L103.077 179.815L103.074 179.823L104 180.2ZM109.5 170.2L108.686 169.619L108.679 169.629L109.5 170.2ZM112.9 166.6L113.52 167.385L113.532 167.375L113.544 167.365L112.9 166.6ZM119.7 166.5L118.843 167.014L118.863 167.049L118.886 167.081L119.7 166.5ZM120.9 169.4L119.909 169.532L119.914 169.571L119.922 169.61L120.9 169.4ZM121.5 174.2L120.504 174.288L120.504 174.289L121.5 174.2ZM121.5 197.7L122.499 197.755L122.499 197.745L121.5 197.7ZM121.3 202.2L120.301 202.163L120.301 202.163L121.3 202.2ZM121.2 208.5L122.2 208.515L122.2 208.507V208.5H121.2ZM121.1 215.3L120.1 215.285L120.1 215.293V215.3H121.1ZM121.3 225L122.3 225.031L122.3 225L122.3 224.969L121.3 225ZM121.2 228.2L120.2 228.169L120.2 228.184V228.2H121.2ZM122 234.8C122.469 235.152 122.8 235.768 122.8 236.9H124.8C124.8 235.366 124.331 234.048 123.2 233.2L122 234.8ZM122.8 236.9C122.8 238.017 122.436 239.319 121.621 240.824L123.379 241.776C124.298 240.081 124.8 238.449 124.8 236.9H122.8ZM121.629 240.808C120.824 242.234 119.806 243.435 118.575 244.419L119.825 245.981C121.261 244.832 122.443 243.433 123.371 241.792L121.629 240.808ZM118.6 244.4C117.385 245.311 116.291 245.7 115.3 245.7V247.7C116.843 247.7 118.348 247.089 119.8 246L118.6 244.4ZM115.3 245.7C114.269 245.7 113.408 245.254 112.669 244.201C111.896 243.099 111.278 241.349 110.888 238.846L108.912 239.154C109.322 241.785 110.004 243.884 111.031 245.349C112.092 246.862 113.531 247.7 115.3 247.7V245.7ZM110.89 238.859C110.631 237.048 110.5 234.997 110.5 232.7H108.5C108.5 235.07 108.635 237.218 108.91 239.141L110.89 238.859ZM110.5 232.7C110.5 231.528 110.565 229.683 110.699 227.153L108.701 227.047C108.568 229.584 108.5 231.472 108.5 232.7H110.5ZM110.7 227.118L110.8 221.518L108.8 221.482L108.7 227.082L110.7 227.118ZM110.8 221.5C110.8 218.578 110.866 214.188 111 208.323L109 208.277C108.867 214.146 108.8 218.555 108.8 221.5H110.8ZM110.999 208.334C111.2 202.389 111.3 196.478 111.3 190.6H109.3C109.3 196.455 109.2 202.344 109.001 208.266L110.999 208.334ZM109.363 190.25C107.689 194.737 105.584 200.886 103.049 208.691L104.951 209.309C107.483 201.514 109.578 195.397 111.237 190.95L109.363 190.25ZM103.049 208.692C102.324 210.93 101.609 212.746 100.906 214.153L102.694 215.047C103.458 213.52 104.209 211.603 104.951 209.308L103.049 208.692ZM100.906 214.153C100.242 215.48 99.2709 216.67 97.9708 217.723L99.2292 219.277C100.729 218.063 101.891 216.654 102.694 215.047L100.906 214.153ZM97.9524 217.738C96.7425 218.766 95.6303 219.2 94.6 219.2V221.2C96.2363 221.2 97.7908 220.5 99.2476 219.262L97.9524 217.738ZM94.6 219.2C92.622 219.2 90.7899 217.907 89.1979 214.66L87.4021 215.54C89.1435 219.093 91.5113 221.2 94.6 221.2V219.2ZM89.1979 214.66C87.562 211.322 86.1489 207.547 84.9627 203.329L83.0373 203.871C84.2511 208.186 85.7047 212.077 87.4021 215.54L89.1979 214.66ZM83.0073 203.479L82.1073 210.879L84.0927 211.121L84.9927 203.721L83.0073 203.479ZM82.1083 210.871C81.2427 217.53 80.4452 222.844 79.7164 226.82L81.6836 227.18C82.4214 223.156 83.224 217.803 84.0917 211.129L82.1083 210.871ZM79.7136 226.836C79.0559 230.782 78.0688 234.731 76.7513 238.684L78.6487 239.316C79.9979 235.269 81.0108 231.218 81.6864 227.164L79.7136 226.836ZM76.7513 238.684C75.7702 241.627 74.6344 244.118 73.352 246.17L75.048 247.23C76.4323 245.015 77.6298 242.373 78.6487 239.316L76.7513 238.684ZM73.3474 246.177C72.2256 248.008 70.8535 248.8 69.2 248.8V250.8C71.6799 250.8 73.6411 249.526 75.0526 247.223L73.3474 246.177ZM69.2 248.8C68.1947 248.8 67.6228 248.543 67.292 248.203C66.9561 247.857 66.7 247.253 66.7 246.2H64.7C64.7 247.547 65.0272 248.743 65.858 249.597C66.6939 250.457 67.8719 250.8 69.2 250.8V248.8ZM66.7 246.2C66.7 244.728 67.1437 242.976 68.1055 240.924L66.2945 240.076C65.2563 242.291 64.7 244.339 64.7 246.2H66.7ZM66.3056 240.053C66.2389 240.186 66.1722 240.319 66.1056 240.453L67.8944 241.347C67.9611 241.214 68.0278 241.081 68.0944 240.947L66.3056 240.053ZM66 240.9C66 240.779 66.0309 240.505 66.2679 240.268C66.5049 240.031 66.7792 240 66.9 240V242C67.0875 242 67.4118 241.952 67.6821 241.682C67.9525 241.412 68 241.087 68 240.9H66ZM67.8536 241.301L68.4536 239.401L66.5464 238.799L65.9464 240.699L67.8536 241.301ZM68.4578 239.387C69.0726 237.338 69.6143 234.93 70.0857 232.168L68.1143 231.832C67.6524 234.537 67.1274 236.862 66.5422 238.813L68.4578 239.387ZM70.0811 232.194C71.0856 227.104 72.022 221.384 72.8908 215.036L70.9092 214.764C70.0446 221.083 69.1144 226.763 68.1189 231.806L70.0811 232.194ZM72.8907 215.036L75.2907 197.536L73.3093 197.264L70.9093 214.764L72.8907 215.036ZM75.2932 197.516C76.0254 191.259 76.824 185.237 77.689 179.448L75.711 179.152C74.8426 184.963 74.0413 191.007 73.3068 197.284L75.2932 197.516ZM77.6907 179.436C78.1549 176.054 78.6478 173.437 79.164 171.566L77.236 171.034C76.6855 173.03 76.1784 175.746 75.7093 179.164L77.6907 179.436ZM79.1578 171.587C79.7131 169.737 80.7059 167.957 82.1612 166.248L80.6388 164.952C79.0275 166.843 77.8869 168.863 77.2422 171.013L79.1578 171.587ZM82.1634 166.246C82.8256 165.463 83.5698 164.84 84.3961 164.368L83.4039 162.632C82.3636 163.226 81.4411 164.003 80.6366 164.954L82.1634 166.246ZM84.3706 164.382C85.2689 163.903 86.0402 163.7 86.7 163.7V161.7C85.6265 161.7 84.5312 162.03 83.4294 162.618L84.3706 164.382ZM86.7 163.7C87.2768 163.7 87.734 163.829 88.1067 164.055C88.4814 164.282 88.8261 164.641 89.1238 165.182L90.8762 164.218C90.4406 163.426 89.8687 162.784 89.1433 162.345C88.416 161.904 87.5899 161.7 86.7 161.7V163.7ZM89.1176 165.171C89.544 165.97 89.87 167.42 90.0017 169.659L91.9983 169.541C91.8633 167.247 91.5226 165.43 90.8824 164.229L89.1176 165.171ZM90.0077 169.724L90.3077 172.124L92.2923 171.876L91.9923 169.476L90.0077 169.724ZM90.3174 172.186C90.7883 174.675 91.3927 177.394 92.1299 180.343L94.0701 179.857C93.3406 176.939 92.745 174.258 92.2826 171.814L90.3174 172.186ZM92.1299 180.343C93.9332 187.556 95.5776 193.133 97.065 197.055L98.935 196.345C97.489 192.533 95.8668 187.044 94.0701 179.857L92.1299 180.343ZM98.9487 197.016C99.4865 195.403 99.8088 194.471 99.9285 194.171L98.0715 193.429C97.9245 193.796 97.5802 194.797 97.0513 196.384L98.9487 197.016ZM99.9464 194.123C101.809 188.667 103.469 184.153 104.926 180.577L103.074 179.823C101.597 183.447 99.9239 188 98.0537 193.477L99.9464 194.123ZM104.92 180.592C106.428 177.052 108.228 173.779 110.321 170.771L108.679 169.629C106.505 172.754 104.639 176.148 103.08 179.808L104.92 180.592ZM110.314 170.781C111.263 169.453 112.332 168.323 113.52 167.385L112.28 165.815C110.935 166.877 109.737 168.147 108.686 169.619L110.314 170.781ZM113.544 167.365C114.687 166.403 115.733 166 116.7 166V164C115.133 164 113.647 164.664 112.256 165.835L113.544 167.365ZM116.7 166C117.831 166 118.462 166.38 118.843 167.014L120.557 165.985C119.738 164.62 118.369 164 116.7 164V166ZM118.886 167.081C119.471 167.9 119.8 168.715 119.909 169.532L121.891 169.268C121.734 168.085 121.262 166.967 120.514 165.919L118.886 167.081ZM119.922 169.61C120.108 170.477 120.304 172.022 120.504 174.288L122.496 174.112C122.296 171.845 122.092 170.19 121.878 169.19L119.922 169.61ZM120.504 174.289C120.767 177.252 120.9 180.688 120.9 184.6H122.9C122.9 180.645 122.766 177.148 122.496 174.111L120.504 174.289ZM120.9 184.6C120.9 187.443 120.768 191.791 120.501 197.655L122.499 197.745C122.766 191.876 122.9 187.49 122.9 184.6H120.9ZM120.502 197.645C120.434 198.853 120.367 200.36 120.301 202.163L122.299 202.237C122.366 200.44 122.432 198.947 122.498 197.755L120.502 197.645ZM120.301 202.163C120.233 203.979 120.2 206.091 120.2 208.5H122.2C122.2 206.109 122.233 204.021 122.299 202.237L120.301 202.163ZM120.2 208.485L120.1 215.285L122.1 215.315L122.2 208.515L120.2 208.485ZM120.1 215.3C120.1 217.516 120.167 220.762 120.3 225.031L122.3 224.969C122.166 220.705 122.1 217.484 122.1 215.3H120.1ZM120.3 224.969L120.2 228.169L122.2 228.231L122.3 225.031L120.3 224.969ZM120.2 228.2C120.2 229.775 120.319 231.112 120.578 232.185C120.833 233.24 121.252 234.161 121.949 234.759L123.251 233.241C123.015 233.039 122.734 232.594 122.522 231.715C122.314 230.855 122.2 229.692 122.2 228.2H120.2ZM177.246 198.6V197.6H177.163L177.082 197.614L177.246 198.6ZM179.646 199.7L178.872 200.333L178.889 200.353L178.906 200.373L179.646 199.7ZM180.246 205.4L179.276 205.157L179.271 205.177L179.267 205.196L180.246 205.4ZM178.346 209.9L179.165 210.473L179.172 210.464L179.178 210.455L178.346 209.9ZM175.046 213.1L175.55 213.964L175.565 213.955L175.58 213.945L175.046 213.1ZM172.646 214.1L172.81 215.086L172.85 215.08L172.889 215.07L172.646 214.1ZM169.646 214.5L169.536 213.506L169.52 213.508L169.505 213.51L169.646 214.5ZM168.946 214.6V215.6H169.017L169.088 215.59L168.946 214.6ZM168.646 214.6V213.6H167.606L167.647 214.639L168.646 214.6ZM168.946 222.2L167.947 222.239L167.995 223.468L169.189 223.17L168.946 222.2ZM171.146 222.2L170.83 223.149L170.9 223.172L170.972 223.185L171.146 222.2ZM173.546 224L172.64 224.423L172.653 224.451L172.668 224.479L173.546 224ZM173.946 229L174.895 229.316L174.923 229.231L174.936 229.141L173.946 229ZM173.846 229.8L174.84 229.91L174.846 229.855V229.8H173.846ZM172.446 236.3L171.501 235.974L171.496 235.989L171.491 236.004L172.446 236.3ZM169.646 241.7L170.421 242.332L170.432 242.319L170.442 242.305L169.646 241.7ZM160.146 247L160.389 246.03L160.374 246.026L160.359 246.023L160.146 247ZM156.946 244.6L156.024 244.988L156.033 245.008L156.042 245.028L156.946 244.6ZM155.846 240.3L156.838 240.176L156.838 240.17L155.846 240.3ZM155.046 226.5L154.046 226.487V226.5H155.046ZM155.146 218.6L156.146 218.613V218.6H155.146ZM155.146 217.8L154.148 217.738L154.146 217.769V217.8H155.146ZM155.246 216.2L156.244 216.262L156.324 214.991L155.069 215.216L155.246 216.2ZM151.346 216.9L151.169 215.916L151.144 215.92L151.119 215.926L151.346 216.9ZM145.946 218.4L145.63 217.451L145.562 217.474L145.499 217.506L145.946 218.4ZM145.146 218.8L144.699 217.906L144.235 218.137L144.157 218.65L145.146 218.8ZM143.646 230.9L144.638 231.024L144.642 230.998L144.644 230.971L143.646 230.9ZM143.446 235.7H142.446V235.823L142.476 235.943L143.446 235.7ZM143.446 238.5L142.466 238.304L142.446 238.401V238.5H143.446ZM142.346 242.1L141.507 241.557L141.502 241.563L141.498 241.57L142.346 242.1ZM139.646 244.5L140.065 245.408L140.072 245.405L139.646 244.5ZM132.246 243.3L131.556 244.023L131.558 244.026L132.246 243.3ZM130.046 237.7L129.048 237.633L129.046 237.667V237.7H130.046ZM130.146 236.2L131.144 236.267L131.144 236.258L130.146 236.2ZM131.246 225.9L130.261 225.729L130.259 225.737L130.258 225.745L131.246 225.9ZM133.646 213.5L134.625 213.704L134.627 213.694L134.629 213.684L133.646 213.5ZM135.346 203.9L134.359 203.737L134.358 203.746L135.346 203.9ZM137.346 188.4L136.35 188.309L136.35 188.315L137.346 188.4ZM137.846 180.3L138.846 180.327L138.846 180.314V180.3H137.846ZM137.846 179.9L136.847 179.852L136.846 179.876V179.9H137.846ZM138.246 176.4L137.285 176.125L137.275 176.158L137.268 176.19L138.246 176.4ZM139.846 173.8L139.139 173.093L139.139 173.093L139.846 173.8ZM149.946 180.9L150.927 181.096L150.932 181.069L150.936 181.041L149.946 180.9ZM149.846 181.4L148.866 181.204L148.854 181.261L148.849 181.319L149.846 181.4ZM149.246 188.8L148.249 188.719L148.248 188.734L148.247 188.749L149.246 188.8ZM148.246 199.3L147.257 199.15L147.254 199.175L147.251 199.2L148.246 199.3ZM147.446 204.5L146.463 204.316L146.142 206.028L147.782 205.442L147.446 204.5ZM152.146 203.1L152.409 204.065L152.436 204.057L152.462 204.049L152.146 203.1ZM152.746 202.9L152.55 201.919L152.489 201.932L152.43 201.951L152.746 202.9ZM155.346 202.2L155.688 203.14L156.346 202.9V202.2H155.346ZM155.246 191.6H154.246V191.614L154.247 191.629L155.246 191.6ZM155.446 178.1L156.445 178.145L156.445 178.144L155.446 178.1ZM160.546 167.9L159.969 167.083L159.968 167.084L160.546 167.9ZM166.746 167.8L167.527 167.175L167.492 167.132L167.453 167.093L166.746 167.8ZM167.746 174.3L168.716 174.543L168.731 174.484L168.738 174.424L167.746 174.3ZM167.646 175.4L168.642 175.491L168.646 175.445V175.4H167.646ZM167.746 184.5L168.745 184.464L168.745 184.456L168.745 184.447L167.746 184.5ZM167.846 187.3L168.846 187.276L168.845 187.264L167.846 187.3ZM167.946 191.4L166.946 191.424L166.947 191.436L167.946 191.4ZM168.246 199.8L167.247 199.836L167.286 200.933L168.375 200.792L168.246 199.8ZM175.946 198.8L176.075 199.792L176.088 199.79L175.946 198.8ZM176.646 198.7L176.788 199.69L176.799 199.688L176.81 199.686L176.646 198.7ZM177.246 199.6C177.965 199.6 178.474 199.846 178.872 200.333L180.42 199.067C179.618 198.087 178.527 197.6 177.246 197.6V199.6ZM178.906 200.373C179.355 200.866 179.646 201.628 179.646 202.8H181.646C181.646 201.305 181.271 200 180.386 199.027L178.906 200.373ZM179.646 202.8C179.646 203.349 179.534 204.126 179.276 205.157L181.216 205.643C181.492 204.541 181.646 203.584 181.646 202.8H179.646ZM179.267 205.196C178.961 206.667 178.379 208.049 177.514 209.345L179.178 210.455C180.18 208.951 180.865 207.333 181.225 205.604L179.267 205.196ZM177.527 209.327C176.663 210.561 175.657 211.531 174.512 212.255L175.58 213.945C176.968 213.069 178.163 211.906 179.165 210.473L177.527 209.327ZM174.542 212.236C173.814 212.661 173.101 212.955 172.404 213.13L172.889 215.07C173.791 214.845 174.678 214.472 175.55 213.964L174.542 212.236ZM172.482 213.114C171.706 213.243 170.725 213.374 169.536 213.506L169.757 215.494C170.967 215.359 171.986 215.224 172.81 215.086L172.482 213.114ZM169.505 213.51L168.805 213.61L169.088 215.59L169.788 215.49L169.505 213.51ZM168.946 213.6H168.646V215.6H168.946V213.6ZM167.647 214.639L167.947 222.239L169.945 222.161L169.645 214.561L167.647 214.639ZM169.189 223.17C169.443 223.107 169.645 223.062 169.8 223.034C169.877 223.02 169.937 223.011 169.982 223.006C170.029 223 170.048 223 170.046 223V221C169.705 221 169.224 221.1 168.704 221.23L169.189 223.17ZM170.046 223C170.248 223 170.506 223.041 170.83 223.149L171.462 221.251C170.986 221.093 170.511 221 170.046 221V223ZM170.972 223.185C171.801 223.331 172.318 223.733 172.64 224.423L174.452 223.577C173.841 222.267 172.758 221.469 171.32 221.215L170.972 223.185ZM172.668 224.479C172.969 225.03 173.146 225.755 173.146 226.7H175.146C175.146 225.511 174.923 224.437 174.424 223.521L172.668 224.479ZM173.146 226.7C173.146 227.234 173.086 227.949 172.956 228.859L174.936 229.141C175.073 228.184 175.146 227.366 175.146 226.7H173.146ZM172.997 228.684C172.883 229.027 172.846 229.414 172.846 229.8H174.846C174.846 229.519 174.876 229.373 174.895 229.316L172.997 228.684ZM172.852 229.69C172.592 232.029 172.139 234.122 171.501 235.974L173.391 236.626C174.086 234.612 174.567 232.371 174.84 229.91L172.852 229.69ZM171.491 236.004C170.927 237.822 170.048 239.518 168.85 241.095L170.442 242.305C171.777 240.549 172.765 238.645 173.401 236.596L171.491 236.004ZM168.871 241.068C165.993 244.601 163.449 246.1 161.246 246.1V248.1C164.376 248.1 167.433 245.999 170.421 242.332L168.871 241.068ZM161.246 246.1C160.813 246.1 160.54 246.068 160.389 246.03L159.904 247.97C160.286 248.066 160.746 248.1 161.246 248.1V246.1ZM160.359 246.023C159.087 245.746 158.3 245.122 157.85 244.172L156.042 245.028C156.792 246.611 158.139 247.587 159.934 247.977L160.359 246.023ZM157.868 244.212C157.375 243.043 157.029 241.7 156.838 240.176L154.854 240.424C155.063 242.1 155.45 243.624 156.024 244.988L157.868 244.212ZM156.838 240.17C156.311 236.156 156.046 231.6 156.046 226.5H154.046C154.046 231.667 154.314 236.311 154.855 240.43L156.838 240.17ZM156.046 226.513L156.146 218.613L154.146 218.587L154.046 226.487L156.046 226.513ZM156.146 218.6V217.8H154.146V218.6H156.146ZM156.144 217.862L156.244 216.262L154.248 216.138L154.148 217.738L156.144 217.862ZM155.069 215.216L151.169 215.916L151.523 217.884L155.423 217.184L155.069 215.216ZM151.119 215.926C149.095 216.398 147.265 216.906 145.63 217.451L146.262 219.349C147.828 218.827 149.597 218.335 151.573 217.874L151.119 215.926ZM145.499 217.506L144.699 217.906L145.593 219.694L146.393 219.294L145.499 217.506ZM144.157 218.65C143.356 223.924 142.852 227.988 142.649 230.829L144.644 230.971C144.841 228.212 145.336 224.209 146.135 218.95L144.157 218.65ZM142.654 230.776C142.512 231.907 142.446 233.557 142.446 235.7H144.446C144.446 233.576 144.513 232.027 144.638 231.024L142.654 230.776ZM142.476 235.943C142.51 236.077 142.546 236.432 142.546 237.1H144.546C144.546 236.435 144.516 235.856 144.416 235.457L142.476 235.943ZM142.546 237.1C142.546 237.676 142.513 238.066 142.466 238.304L144.427 238.696C144.512 238.267 144.546 237.724 144.546 237.1H142.546ZM142.446 238.5C142.446 239.561 142.142 240.574 141.507 241.557L143.186 242.643C144.017 241.359 144.446 239.972 144.446 238.5H142.446ZM141.498 241.57C140.933 242.475 140.179 243.144 139.22 243.595L140.072 245.405C141.38 244.789 142.426 243.859 143.194 242.63L141.498 241.57ZM139.227 243.592C138.498 243.929 137.708 244.1 136.846 244.1V246.1C137.984 246.1 139.061 245.871 140.065 245.408L139.227 243.592ZM136.846 244.1C135.293 244.1 134.008 243.592 132.934 242.574L131.558 244.026C133.017 245.408 134.799 246.1 136.846 246.1V244.1ZM132.937 242.577C131.698 241.394 131.046 239.805 131.046 237.7H129.046C129.046 240.262 129.861 242.406 131.556 244.023L132.937 242.577ZM131.044 237.767L131.144 236.267L129.148 236.133L129.048 237.633L131.044 237.767ZM131.144 236.258C131.343 232.823 131.706 229.422 132.234 226.055L130.258 225.745C129.72 229.178 129.35 232.643 129.148 236.142L131.144 236.258ZM132.231 226.071C132.829 222.618 133.627 218.497 134.625 213.704L132.667 213.296C131.666 218.103 130.863 222.248 130.261 225.729L132.231 226.071ZM134.629 213.684C135.429 209.415 135.998 206.203 136.334 204.054L134.358 203.746C134.027 205.863 133.463 209.051 132.663 213.316L134.629 213.684ZM136.333 204.063C137.269 198.376 137.94 193.183 138.342 188.485L136.35 188.315C135.952 192.95 135.289 198.091 134.359 203.737L136.333 204.063ZM138.342 188.491C138.61 185.54 138.778 182.818 138.846 180.327L136.846 180.273C136.78 182.715 136.615 185.393 136.35 188.309L138.342 188.491ZM138.846 180.3V179.9H136.846V180.3H138.846ZM138.845 179.948C138.91 178.579 139.039 177.471 139.224 176.61L137.268 176.19C137.053 177.196 136.915 178.421 136.847 179.852L138.845 179.948ZM139.208 176.675C139.42 175.93 139.853 175.207 140.553 174.507L139.139 173.093C138.239 173.993 137.605 175.003 137.285 176.125L139.208 176.675ZM140.553 174.507C141.491 173.569 142.633 173.1 144.046 173.1V171.1C142.126 171.1 140.468 171.764 139.139 173.093L140.553 174.507ZM144.046 173.1C145.538 173.1 146.709 173.578 147.639 174.507L149.053 173.093C147.716 171.756 146.021 171.1 144.046 171.1V173.1ZM147.639 174.507C148.535 175.403 149.046 176.718 149.046 178.6H151.046C151.046 176.348 150.424 174.464 149.053 173.093L147.639 174.507ZM149.046 178.6C149.046 179.663 149.012 180.368 148.956 180.759L150.936 181.041C151.014 180.499 151.046 179.67 151.046 178.6H149.046ZM148.966 180.704L148.866 181.204L150.827 181.596L150.927 181.096L148.966 180.704ZM148.849 181.319L148.249 188.719L150.243 188.881L150.843 181.481L148.849 181.319ZM148.247 188.749C148.049 192.658 147.718 196.123 147.257 199.15L149.235 199.45C149.708 196.343 150.044 192.809 150.245 188.851L148.247 188.749ZM147.251 199.2C147.122 200.494 146.861 202.196 146.463 204.316L148.429 204.684C148.831 202.538 149.104 200.773 149.241 199.4L147.251 199.2ZM147.782 205.442C148.676 205.122 150.211 204.664 152.409 204.065L151.883 202.135C149.682 202.736 148.082 203.211 147.11 203.558L147.782 205.442ZM152.462 204.049L153.062 203.849L152.43 201.951L151.83 202.151L152.462 204.049ZM152.942 203.881C153.978 203.673 154.895 203.428 155.688 203.14L155.004 201.26C154.33 201.505 153.515 201.726 152.55 201.919L152.942 203.881ZM156.346 202.2C156.346 197.465 156.313 193.92 156.246 191.571L154.247 191.629C154.313 193.947 154.346 197.469 154.346 202.2H156.346ZM156.246 191.6V191.4H154.246V191.6H156.246ZM156.246 191.4C156.246 185.47 156.313 181.055 156.445 178.145L154.447 178.055C154.313 181.012 154.246 185.463 154.246 191.4H156.246ZM156.445 178.144C156.634 173.864 158.218 170.775 161.124 168.716L159.968 167.084C156.474 169.559 154.658 173.269 154.447 178.056L156.445 178.144ZM161.123 168.717C162.115 168.017 163.084 167.7 164.046 167.7V165.7C162.609 165.7 161.244 166.183 159.969 167.083L161.123 168.717ZM164.046 167.7C164.856 167.7 165.499 167.967 166.039 168.507L167.453 167.093C166.526 166.166 165.37 165.7 164.046 165.7V167.7ZM165.965 168.425C166.591 169.207 166.946 170.269 166.946 171.7H168.946C168.946 169.931 168.501 168.393 167.527 167.175L165.965 168.425ZM166.946 171.7C166.946 172.308 166.885 173.129 166.754 174.176L168.738 174.424C168.874 173.338 168.946 172.425 168.946 171.7H166.946ZM166.776 174.057C166.68 174.44 166.646 174.9 166.646 175.4H168.646C168.646 174.967 168.678 174.694 168.716 174.543L166.776 174.057ZM166.65 175.309C166.579 176.091 166.546 177.296 166.546 178.9H168.546C168.546 177.304 168.58 176.176 168.642 175.491L166.65 175.309ZM166.546 178.9C166.546 180.128 166.614 182.016 166.747 184.553L168.745 184.447C168.612 181.917 168.546 180.072 168.546 178.9H166.546ZM166.747 184.536L166.847 187.336L168.845 187.264L168.745 184.464L166.747 184.536ZM166.846 187.324L166.946 191.424L168.946 191.376L168.846 187.276L166.846 187.324ZM166.947 191.436L167.247 199.836L169.245 199.764L168.945 191.364L166.947 191.436ZM168.375 200.792L176.075 199.792L175.817 197.808L168.117 198.808L168.375 200.792ZM176.088 199.79L176.788 199.69L176.505 197.71L175.805 197.81L176.088 199.79ZM176.81 199.686L177.41 199.586L177.082 197.614L176.482 197.714L176.81 199.686ZM237.541 234L236.891 234.759L236.915 234.78L236.941 234.8L237.541 234ZM237.441 241.3L238.312 241.792L238.316 241.784L238.321 241.776L237.441 241.3ZM234.141 245.2L234.741 246L234.754 245.991L234.766 245.981L234.141 245.2ZM224.841 239L223.851 239.141L223.853 239.154L224.841 239ZM224.641 227.1L225.64 227.153L225.641 227.135L225.641 227.118L224.641 227.1ZM224.741 221.5L225.741 221.518L225.741 221.509V221.5H224.741ZM224.941 208.3L223.942 208.266L223.942 208.277L224.941 208.3ZM225.241 190.6H226.241L224.305 190.25L225.241 190.6ZM218.941 209L217.99 208.691L217.99 208.692L218.941 209ZM216.741 214.6L215.847 214.153L215.847 214.153L216.741 214.6ZM213.541 218.5L212.912 217.723L212.903 217.73L212.894 217.738L213.541 218.5ZM203.241 215.1L204.139 214.66L204.139 214.66L203.241 215.1ZM198.941 203.6L199.904 203.329L197.949 203.479L198.941 203.6ZM198.041 211L199.033 211.129L199.034 211.121L198.041 211ZM195.641 227L194.658 226.82L194.656 226.828L194.655 226.836L195.641 227ZM192.641 239L193.59 239.316L193.59 239.316L192.641 239ZM189.141 246.7L188.293 246.17L188.289 246.177L189.141 246.7ZM182.141 240.5L183.047 240.924L181.247 240.053L182.141 240.5ZM181.941 240.9L181.047 240.453L180.941 240.664V240.9H181.941ZM181.841 241L180.888 240.699L180.477 242H181.841V241ZM182.441 239.1L183.395 239.401L183.397 239.394L183.399 239.387L182.441 239.1ZM184.041 232L183.06 231.806L183.058 231.819L183.056 231.832L184.041 232ZM186.841 214.9L185.851 214.764L185.851 214.764L186.841 214.9ZM189.241 197.4L190.232 197.536L190.233 197.526L190.235 197.516L189.241 197.4ZM191.641 179.3L192.63 179.448L192.632 179.436L191.641 179.3ZM193.141 171.3L192.184 171.013L192.18 171.023L192.177 171.034L193.141 171.3ZM196.341 165.6L197.103 166.248L197.105 166.246L196.341 165.6ZM198.841 163.5L198.371 162.618L198.358 162.625L198.345 162.632L198.841 163.5ZM204.941 164.7L205.824 164.229L205.818 164.218L204.941 164.7ZM205.941 169.6L204.943 169.659L204.945 169.691L204.949 169.724L205.941 169.6ZM206.241 172L205.249 172.124L205.253 172.155L205.259 172.186L206.241 172ZM208.041 180.1L207.071 180.343L207.071 180.343L208.041 180.1ZM212.941 196.7L212.006 197.055L213.002 199.68L213.89 197.016L212.941 196.7ZM213.941 193.8L214.87 194.171L214.879 194.147L214.888 194.123L213.941 193.8ZM218.941 180.2L218.021 179.808L218.018 179.815L218.015 179.823L218.941 180.2ZM224.441 170.2L223.628 169.619L223.621 169.629L224.441 170.2ZM227.841 166.6L228.461 167.385L228.473 167.375L228.486 167.365L227.841 166.6ZM234.641 166.5L233.784 167.014L233.804 167.049L233.828 167.081L234.641 166.5ZM235.841 169.4L234.85 169.532L234.855 169.571L234.864 169.61L235.841 169.4ZM236.441 174.2L235.445 174.288L235.445 174.289L236.441 174.2ZM236.441 197.7L237.44 197.755L237.44 197.745L236.441 197.7ZM236.241 202.2L235.242 202.163L235.242 202.163L236.241 202.2ZM236.141 208.5L237.141 208.515L237.141 208.507V208.5H236.141ZM236.041 215.3L235.042 215.285L235.041 215.293V215.3H236.041ZM236.241 225L237.241 225.031L237.242 225L237.241 224.969L236.241 225ZM236.141 228.2L235.142 228.169L235.141 228.184V228.2H236.141ZM236.941 234.8C237.411 235.152 237.741 235.768 237.741 236.9H239.741C239.741 235.366 239.272 234.048 238.141 233.2L236.941 234.8ZM237.741 236.9C237.741 238.017 237.377 239.319 236.562 240.824L238.321 241.776C239.239 240.081 239.741 238.449 239.741 236.9H237.741ZM236.571 240.808C235.765 242.234 234.747 243.435 233.517 244.419L234.766 245.981C236.202 244.832 237.385 243.433 238.312 241.792L236.571 240.808ZM233.541 244.4C232.327 245.311 231.232 245.7 230.241 245.7V247.7C231.784 247.7 233.29 247.089 234.741 246L233.541 244.4ZM230.241 245.7C229.21 245.7 228.349 245.254 227.61 244.201C226.838 243.099 226.22 241.349 225.829 238.846L223.853 239.154C224.263 241.785 224.945 243.884 225.973 245.349C227.034 246.862 228.473 247.7 230.241 247.7V245.7ZM225.831 238.859C225.573 237.048 225.441 234.997 225.441 232.7H223.441C223.441 235.07 223.577 237.218 223.851 239.141L225.831 238.859ZM225.441 232.7C225.441 231.528 225.507 229.683 225.64 227.153L223.643 227.047C223.509 229.584 223.441 231.472 223.441 232.7H225.441ZM225.641 227.118L225.741 221.518L223.742 221.482L223.642 227.082L225.641 227.118ZM225.741 221.5C225.741 218.578 225.808 214.188 225.941 208.323L223.942 208.277C223.808 214.146 223.741 218.555 223.741 221.5H225.741ZM225.941 208.334C226.141 202.389 226.241 196.478 226.241 190.6H224.241C224.241 196.455 224.142 202.344 223.942 208.266L225.941 208.334ZM224.305 190.25C222.631 194.737 220.525 200.886 217.99 208.691L219.893 209.309C222.424 201.514 224.519 195.397 226.178 190.95L224.305 190.25ZM217.99 208.692C217.266 210.93 216.55 212.746 215.847 214.153L217.636 215.047C218.399 213.52 219.15 211.603 219.893 209.308L217.99 208.692ZM215.847 214.153C215.184 215.48 214.212 216.67 212.912 217.723L214.171 219.277C215.671 218.063 216.833 216.654 217.636 215.047L215.847 214.153ZM212.894 217.738C211.684 218.766 210.572 219.2 209.541 219.2V221.2C211.178 221.2 212.732 220.5 214.189 219.262L212.894 217.738ZM209.541 219.2C207.563 219.2 205.731 217.907 204.139 214.66L202.343 215.54C204.085 219.093 206.453 221.2 209.541 221.2V219.2ZM204.139 214.66C202.503 211.322 201.09 207.547 199.904 203.329L197.979 203.871C199.192 208.186 200.646 212.077 202.343 215.54L204.139 214.66ZM197.949 203.479L197.049 210.879L199.034 211.121L199.934 203.721L197.949 203.479ZM197.05 210.871C196.184 217.53 195.387 222.844 194.658 226.82L196.625 227.18C197.363 223.156 198.165 217.803 199.033 211.129L197.05 210.871ZM194.655 226.836C193.997 230.782 193.01 234.731 191.693 238.684L193.59 239.316C194.939 235.269 195.952 231.218 196.628 227.164L194.655 226.836ZM191.693 238.684C190.712 241.627 189.576 244.118 188.293 246.17L189.989 247.23C191.374 245.015 192.571 242.373 193.59 239.316L191.693 238.684ZM188.289 246.177C187.167 248.008 185.795 248.8 184.141 248.8V250.8C186.621 250.8 188.582 249.526 189.994 247.223L188.289 246.177ZM184.141 248.8C183.136 248.8 182.564 248.543 182.233 248.203C181.898 247.857 181.641 247.253 181.641 246.2H179.641C179.641 247.547 179.969 248.743 180.799 249.597C181.635 250.457 182.813 250.8 184.141 250.8V248.8ZM181.641 246.2C181.641 244.728 182.085 242.976 183.047 240.924L181.236 240.076C180.198 242.291 179.641 244.339 179.641 246.2H181.641ZM181.247 240.053C181.18 240.186 181.114 240.319 181.047 240.453L182.836 241.347C182.903 241.214 182.969 241.081 183.036 240.947L181.247 240.053ZM180.941 240.9C180.941 240.779 180.972 240.505 181.209 240.268C181.446 240.031 181.721 240 181.841 240V242C182.029 242 182.353 241.952 182.624 241.682C182.894 241.412 182.941 241.087 182.941 240.9H180.941ZM182.795 241.301L183.395 239.401L181.488 238.799L180.888 240.699L182.795 241.301ZM183.399 239.387C184.014 237.338 184.556 234.93 185.027 232.168L183.056 231.832C182.594 234.537 182.069 236.862 181.484 238.813L183.399 239.387ZM185.022 232.194C186.027 227.104 186.963 221.384 187.832 215.036L185.851 214.764C184.986 221.083 184.056 226.763 183.06 231.806L185.022 232.194ZM187.832 215.036L190.232 197.536L188.251 197.264L185.851 214.764L187.832 215.036ZM190.235 197.516C190.967 191.259 191.765 185.237 192.63 179.448L190.652 179.152C189.784 184.963 188.983 191.007 188.248 197.284L190.235 197.516ZM192.632 179.436C193.096 176.054 193.589 173.437 194.105 171.566L192.177 171.034C191.627 173.03 191.12 175.746 190.651 179.164L192.632 179.436ZM194.099 171.587C194.654 169.737 195.647 167.957 197.103 166.248L195.58 164.952C193.969 166.843 192.828 168.863 192.184 171.013L194.099 171.587ZM197.105 166.246C197.767 165.463 198.511 164.84 199.338 164.368L198.345 162.632C197.305 163.226 196.383 164.003 195.578 164.954L197.105 166.246ZM199.312 164.382C200.21 163.903 200.982 163.7 201.641 163.7V161.7C200.568 161.7 199.473 162.03 198.371 162.618L199.312 164.382ZM201.641 163.7C202.218 163.7 202.675 163.829 203.048 164.055C203.423 164.282 203.767 164.641 204.065 165.182L205.818 164.218C205.382 163.426 204.81 162.784 204.085 162.345C203.357 161.904 202.531 161.7 201.641 161.7V163.7ZM204.059 165.171C204.485 165.97 204.811 167.42 204.943 169.659L206.94 169.541C206.805 167.247 206.464 165.43 205.824 164.229L204.059 165.171ZM204.949 169.724L205.249 172.124L207.234 171.876L206.934 169.476L204.949 169.724ZM205.259 172.186C205.73 174.675 206.334 177.394 207.071 180.343L209.012 179.857C208.282 176.939 207.686 174.258 207.224 171.814L205.259 172.186ZM207.071 180.343C208.875 187.556 210.519 193.133 212.006 197.055L213.876 196.345C212.43 192.533 210.808 187.044 209.012 179.857L207.071 180.343ZM213.89 197.016C214.428 195.403 214.75 194.471 214.87 194.171L213.013 193.429C212.866 193.796 212.522 194.797 211.993 196.384L213.89 197.016ZM214.888 194.123C216.751 188.667 218.411 184.153 219.867 180.577L218.015 179.823C216.539 183.447 214.865 188 212.995 193.477L214.888 194.123ZM219.861 180.592C221.369 177.052 223.17 173.779 225.262 170.771L223.621 169.629C221.446 172.754 219.58 176.148 218.021 179.808L219.861 180.592ZM225.255 170.781C226.204 169.453 227.273 168.323 228.461 167.385L227.222 165.815C225.876 166.877 224.679 168.147 223.628 169.619L225.255 170.781ZM228.486 167.365C229.628 166.403 230.675 166 231.641 166V164C230.075 164 228.588 164.664 227.197 165.835L228.486 167.365ZM231.641 166C232.773 166 233.403 166.38 233.784 167.014L235.499 165.985C234.679 164.62 233.31 164 231.641 164V166ZM233.828 167.081C234.413 167.9 234.741 168.715 234.85 169.532L236.833 169.268C236.675 168.085 236.204 166.967 235.455 165.919L233.828 167.081ZM234.864 169.61C235.049 170.477 235.245 172.022 235.445 174.288L237.438 174.112C237.237 171.845 237.033 170.19 236.819 169.19L234.864 169.61ZM235.445 174.289C235.709 177.252 235.841 180.688 235.841 184.6H237.841C237.841 180.645 237.707 177.148 237.437 174.111L235.445 174.289ZM235.841 184.6C235.841 187.443 235.709 191.791 235.442 197.655L237.44 197.745C237.707 191.876 237.841 187.49 237.841 184.6H235.841ZM235.443 197.645C235.376 198.853 235.309 200.36 235.242 202.163L237.241 202.237C237.307 200.44 237.374 198.947 237.44 197.755L235.443 197.645ZM235.242 202.163C235.175 203.979 235.141 206.091 235.141 208.5H237.141C237.141 206.109 237.175 204.021 237.241 202.237L235.242 202.163ZM235.142 208.485L235.042 215.285L237.041 215.315L237.141 208.515L235.142 208.485ZM235.041 215.3C235.041 217.516 235.108 220.762 235.242 225.031L237.241 224.969C237.108 220.705 237.041 217.484 237.041 215.3H235.041ZM235.242 224.969L235.142 228.169L237.141 228.231L237.241 225.031L235.242 224.969ZM235.141 228.2C235.141 229.775 235.26 231.112 235.519 232.185C235.774 233.24 236.193 234.161 236.891 234.759L238.192 233.241C237.956 233.039 237.675 232.594 237.463 231.715C237.256 230.855 237.141 229.692 237.141 228.2H235.141Z" fill="black"/>
</g>
<g filter="url(#filter1_d)">
<circle cx="154.5" cy="169.5" r="138" stroke="white" stroke-width="25" shape-rendering="crispEdges"/>
</g>
<path d="M116.84 123.96C117.56 124.44 118.12 125.08 118.52 125.88C118.92 126.68 119.12 127.52 119.12 128.4C119.12 129.12 119 129.84 118.76 130.56C118.04 132.4 116.24 134.12 113.36 135.72C110.56 137.24 107.72 138 104.84 138C102.6 138 100.84 137.52 99.56 136.56C98.52 135.84 98 134.64 98 132.96C98 131.84 98.32 130.84 98.96 129.96C100.4 127.64 102.84 125.96 106.28 124.92L107.12 124.56C109.12 123.68 110.92 123.2 112.52 123.12H113.48C114.92 123.12 116.04 123.4 116.84 123.96Z" fill="white"/>
<path d="M116.84 123.96L116.267 124.779L116.276 124.786L116.285 124.792L116.84 123.96ZM118.52 125.88L117.626 126.327L117.626 126.327L118.52 125.88ZM118.76 130.56L119.691 130.924L119.701 130.901L119.709 130.876L118.76 130.56ZM113.36 135.72L113.837 136.599L113.846 136.594L113.36 135.72ZM99.56 136.56L100.16 135.76L100.145 135.749L100.129 135.738L99.56 136.56ZM98.96 129.96L99.7687 130.548L99.7903 130.519L99.8096 130.487L98.96 129.96ZM106.28 124.92L106.569 125.877L106.623 125.861L106.674 125.839L106.28 124.92ZM107.12 124.56L107.514 125.479L107.523 125.475L107.12 124.56ZM112.52 123.12V122.12H112.495L112.47 122.121L112.52 123.12ZM116.285 124.792C116.856 125.172 117.301 125.677 117.626 126.327L119.414 125.433C118.939 124.483 118.264 123.708 117.395 123.128L116.285 124.792ZM117.626 126.327C117.957 126.991 118.12 127.678 118.12 128.4H120.12C120.12 127.362 119.883 126.369 119.414 125.433L117.626 126.327ZM118.12 128.4C118.12 129.007 118.019 129.62 117.811 130.244L119.709 130.876C119.981 130.06 120.12 129.233 120.12 128.4H118.12ZM117.829 130.196C117.234 131.715 115.676 133.289 112.874 134.846L113.846 136.594C116.804 134.951 118.846 133.085 119.691 130.924L117.829 130.196ZM112.883 134.841C110.213 136.29 107.536 137 104.84 137V139C107.904 139 110.907 138.19 113.837 136.599L112.883 134.841ZM104.84 137C102.732 137 101.21 136.547 100.16 135.76L98.96 137.36C100.47 138.493 102.468 139 104.84 139V137ZM100.129 135.738C99.4437 135.263 99 134.431 99 132.96H97C97 134.849 97.5963 136.417 98.9908 137.382L100.129 135.738ZM99 132.96C99 132.045 99.2569 131.252 99.7687 130.548L98.1513 129.372C97.3831 130.428 97 131.635 97 132.96H99ZM99.8096 130.487C101.085 128.432 103.287 126.869 106.569 125.877L105.991 123.963C102.393 125.051 99.7146 126.848 98.1104 129.433L99.8096 130.487ZM106.674 125.839L107.514 125.479L106.726 123.641L105.886 124.001L106.674 125.839ZM107.523 125.475C109.449 124.628 111.127 124.191 112.57 124.119L112.47 122.121C110.713 122.209 108.791 122.732 106.717 123.645L107.523 125.475ZM112.52 124.12H113.48V122.12H112.52V124.12ZM113.48 124.12C114.807 124.12 115.697 124.381 116.267 124.779L117.413 123.141C116.383 122.419 115.033 122.12 113.48 122.12V124.12Z" fill="black"/>
<path d="M210.84 123.96C211.56 124.44 212.12 125.08 212.52 125.88C212.92 126.68 213.12 127.52 213.12 128.4C213.12 129.12 213 129.84 212.76 130.56C212.04 132.4 210.24 134.12 207.36 135.72C204.56 137.24 201.72 138 198.84 138C196.6 138 194.84 137.52 193.56 136.56C192.52 135.84 192 134.64 192 132.96C192 131.84 192.32 130.84 192.96 129.96C194.4 127.64 196.84 125.96 200.28 124.92L201.12 124.56C203.12 123.68 204.92 123.2 206.52 123.12H207.48C208.92 123.12 210.04 123.4 210.84 123.96Z" fill="white"/>
<path d="M210.84 123.96L210.267 124.779L210.276 124.786L210.285 124.792L210.84 123.96ZM212.52 125.88L211.626 126.327L211.626 126.327L212.52 125.88ZM212.76 130.56L213.691 130.924L213.701 130.901L213.709 130.876L212.76 130.56ZM207.36 135.72L207.837 136.599L207.846 136.594L207.36 135.72ZM193.56 136.56L194.16 135.76L194.145 135.749L194.129 135.738L193.56 136.56ZM192.96 129.96L193.769 130.548L193.79 130.519L193.81 130.487L192.96 129.96ZM200.28 124.92L200.569 125.877L200.623 125.861L200.674 125.839L200.28 124.92ZM201.12 124.56L201.514 125.479L201.523 125.475L201.12 124.56ZM206.52 123.12V122.12H206.495L206.47 122.121L206.52 123.12ZM210.285 124.792C210.856 125.172 211.301 125.677 211.626 126.327L213.414 125.433C212.939 124.483 212.264 123.708 211.395 123.128L210.285 124.792ZM211.626 126.327C211.957 126.991 212.12 127.678 212.12 128.4H214.12C214.12 127.362 213.883 126.369 213.414 125.433L211.626 126.327ZM212.12 128.4C212.12 129.007 212.019 129.62 211.811 130.244L213.709 130.876C213.981 130.06 214.12 129.233 214.12 128.4H212.12ZM211.829 130.196C211.234 131.715 209.676 133.289 206.874 134.846L207.846 136.594C210.804 134.951 212.846 133.085 213.691 130.924L211.829 130.196ZM206.883 134.841C204.213 136.29 201.536 137 198.84 137V139C201.904 139 204.907 138.19 207.837 136.599L206.883 134.841ZM198.84 137C196.732 137 195.21 136.547 194.16 135.76L192.96 137.36C194.47 138.493 196.468 139 198.84 139V137ZM194.129 135.738C193.444 135.263 193 134.431 193 132.96H191C191 134.849 191.596 136.417 192.991 137.382L194.129 135.738ZM193 132.96C193 132.045 193.257 131.252 193.769 130.548L192.151 129.372C191.383 130.428 191 131.635 191 132.96H193ZM193.81 130.487C195.085 128.432 197.287 126.869 200.569 125.877L199.991 123.963C196.393 125.051 193.715 126.848 192.11 129.433L193.81 130.487ZM200.674 125.839L201.514 125.479L200.726 123.641L199.886 124.001L200.674 125.839ZM201.523 125.475C203.449 124.628 205.127 124.191 206.57 124.119L206.47 122.121C204.713 122.209 202.791 122.732 200.717 123.645L201.523 125.475ZM206.52 124.12H207.48V122.12H206.52V124.12ZM207.48 124.12C208.807 124.12 209.697 124.381 210.267 124.779L211.413 123.141C210.383 122.419 209.033 122.12 207.48 122.12V124.12Z" fill="black"/>
<path d="M189.3 96.1C188.5 95.9667 187.833 95.7 187.3 95.3C186.833 94.9 186.6 94.4333 186.6 93.9C186.6 93.2333 186.967 92.5667 187.7 91.9L198.2 82.4C199 81.6667 200.033 81.0667 201.3 80.6C202.633 80.1333 203.9 79.9 205.1 79.9C206.167 79.9 207.033 80.0667 207.7 80.4C210.3 81.6 213.367 83.6667 216.9 86.6L219.7 82.5C220.433 81.5 221.533 80.7 223 80.1C224.533 79.5 226.067 79.2 227.6 79.2C229 79.2 230.133 79.4667 231 80C231.933 80.4667 232.4 81.1667 232.4 82.1C232.4 82.9 232.033 83.8 231.3 84.8C230.1 86.6667 228.233 89.4 225.7 93L223.3 96.4C222.5 97.4667 221.4 98.3333 220 99C218.667 99.6667 217.267 100 215.8 100C214.067 100 212.633 99.5667 211.5 98.7C209.167 96.7667 207.933 95.7333 207.8 95.6C204.467 92.8667 202.267 91.1333 201.2 90.4L198.5 92.6C197.433 93.6 196.133 94.4667 194.6 95.2C193.067 95.8667 191.633 96.2 190.3 96.2C189.833 96.2 189.5 96.1667 189.3 96.1Z" fill="white"/>
<path d="M189.3 96.1L189.616 95.1513L189.542 95.1265L189.464 95.1136L189.3 96.1ZM187.3 95.3L186.649 96.0593L186.674 96.0805L186.7 96.1L187.3 95.3ZM187.7 91.9L187.029 91.1585L187.027 91.1601L187.7 91.9ZM198.2 82.4L198.871 83.1415L198.876 83.1372L198.2 82.4ZM201.3 80.6L200.97 79.6561L200.962 79.6588L200.954 79.6617L201.3 80.6ZM207.7 80.4L207.253 81.2944L207.267 81.3014L207.281 81.308L207.7 80.4ZM216.9 86.6L216.261 87.3694L217.106 88.071L217.726 87.164L216.9 86.6ZM219.7 82.5L218.894 81.9086L218.884 81.9222L218.874 81.936L219.7 82.5ZM223 80.1L222.636 79.1688L222.628 79.1715L222.621 79.1745L223 80.1ZM231 80L230.476 80.8517L230.513 80.8747L230.553 80.8944L231 80ZM231.3 84.8L230.494 84.2086L230.475 84.2334L230.459 84.2592L231.3 84.8ZM225.7 93L226.517 93.5767L226.518 93.5755L225.7 93ZM223.3 96.4L224.1 97L224.109 96.9885L224.117 96.9767L223.3 96.4ZM220 99L219.57 98.0971L219.561 98.1013L219.553 98.1056L220 99ZM211.5 98.7L210.862 99.47L210.877 99.4825L210.893 99.4944L211.5 98.7ZM207.8 95.6L208.507 94.8929L208.472 94.858L208.434 94.8267L207.8 95.6ZM201.2 90.4L201.767 89.576L201.149 89.1515L200.568 89.6248L201.2 90.4ZM198.5 92.6L197.868 91.8248L197.841 91.8467L197.816 91.8705L198.5 92.6ZM194.6 95.2L194.999 96.1171L195.015 96.1099L195.031 96.1021L194.6 95.2ZM189.464 95.1136C188.789 95.001 188.28 94.7852 187.9 94.5L186.7 96.1C187.386 96.6148 188.211 96.9324 189.136 97.0864L189.464 95.1136ZM187.951 94.5407C187.668 94.2985 187.6 94.0953 187.6 93.9H185.6C185.6 94.7713 185.998 95.5015 186.649 96.0593L187.951 94.5407ZM187.6 93.9C187.6 93.6285 187.746 93.2099 188.373 92.6399L187.027 91.1601C186.188 91.9234 185.6 92.8381 185.6 93.9H187.6ZM188.371 92.6415L198.871 83.1415L197.529 81.6585L187.029 91.1585L188.371 92.6415ZM198.876 83.1372C199.56 82.5103 200.472 81.9706 201.646 81.5383L200.954 79.6617C199.594 80.1627 198.44 80.823 197.524 81.6628L198.876 83.1372ZM201.63 81.5439C202.876 81.1079 204.03 80.9 205.1 80.9V78.9C203.77 78.9 202.391 79.1587 200.97 79.6561L201.63 81.5439ZM205.1 80.9C206.074 80.9 206.772 81.0539 207.253 81.2944L208.147 79.5056C207.295 79.0795 206.26 78.9 205.1 78.9V80.9ZM207.281 81.308C209.769 82.4564 212.76 84.4625 216.261 87.3694L217.539 85.8306C213.974 82.8708 210.831 80.7436 208.119 79.492L207.281 81.308ZM217.726 87.164L220.526 83.064L218.874 81.936L216.074 86.036L217.726 87.164ZM220.506 83.0914C221.104 82.2761 222.036 81.5749 223.379 81.0255L222.621 79.1745C221.031 79.8251 219.762 80.7239 218.894 81.9086L220.506 83.0914ZM223.364 81.0312C224.79 80.4733 226.2 80.2 227.6 80.2V78.2C225.933 78.2 224.276 78.5267 222.636 79.1688L223.364 81.0312ZM227.6 80.2C228.882 80.2 229.815 80.4452 230.476 80.8517L231.524 79.1483C230.451 78.4881 229.118 78.2 227.6 78.2V80.2ZM230.553 80.8944C230.901 81.0684 231.102 81.2554 231.218 81.4297C231.33 81.5977 231.4 81.8083 231.4 82.1H233.4C233.4 81.4583 233.237 80.8523 232.882 80.3203C232.532 79.7946 232.033 79.3982 231.447 79.1056L230.553 80.8944ZM231.4 82.1C231.4 82.5991 231.166 83.2919 230.494 84.2086L232.106 85.3914C232.901 84.3081 233.4 83.2009 233.4 82.1H231.4ZM230.459 84.2592C229.271 86.1077 227.414 88.8272 224.882 92.4245L226.518 93.5755C229.053 89.9728 230.929 87.2256 232.141 85.3408L230.459 84.2592ZM224.883 92.4233L222.483 95.8233L224.117 96.9767L226.517 93.5767L224.883 92.4233ZM222.5 95.8C221.812 96.7177 220.848 97.4886 219.57 98.0971L220.43 99.9029C221.952 99.178 223.188 98.2157 224.1 97L222.5 95.8ZM219.553 98.1056C218.356 98.704 217.109 99 215.8 99V101C217.425 101 218.977 100.629 220.447 99.8944L219.553 98.1056ZM215.8 99C214.238 99 213.031 98.6122 212.107 97.9056L210.893 99.4944C212.235 100.521 213.896 101 215.8 101V99ZM212.138 97.93C210.972 96.9637 210.082 96.2234 209.467 95.7085C209.16 95.4508 208.923 95.2511 208.756 95.1082C208.57 94.9498 208.506 94.8913 208.507 94.8929L207.093 96.3071C207.2 96.4144 207.593 96.7476 208.183 97.2415C208.802 97.76 209.695 98.503 210.862 99.47L212.138 97.93ZM208.434 94.8267C205.109 92.1 202.875 90.3378 201.767 89.576L200.633 91.224C201.659 91.9288 203.825 93.6334 207.166 96.3733L208.434 94.8267ZM200.568 89.6248L197.868 91.8248L199.132 93.3752L201.832 91.1752L200.568 89.6248ZM197.816 91.8705C196.835 92.79 195.624 93.6018 194.169 94.2979L195.031 96.1021C196.643 95.3316 198.031 94.41 199.184 93.3295L197.816 91.8705ZM194.201 94.2829C192.763 94.9083 191.466 95.2 190.3 95.2V97.2C191.801 97.2 193.37 96.825 194.999 96.1171L194.201 94.2829ZM190.3 95.2C190.088 95.2 189.923 95.1923 189.8 95.18C189.738 95.1738 189.692 95.1671 189.659 95.1609C189.625 95.1545 189.613 95.1502 189.616 95.1513L188.984 97.0487C189.349 97.1705 189.824 97.2 190.3 97.2V95.2Z" fill="black"/>
<g filter="url(#filter2_d)">
<path d="M228.177 1.6441C228.963 2.22387 229.347 2.87364 229.329 3.59342C229.313 4.23322 229.017 4.86604 228.441 5.49188C227.865 6.11772 227.211 6.66159 226.48 7.12349C221.355 10.4368 217.575 14.4237 215.138 19.0844C214.384 20.4261 212.912 21.7097 210.721 22.9355C208.449 24.1592 206.314 24.7462 204.315 24.6963C202.555 24.6524 201.29 24.0607 200.518 22.9211C197.274 18.1988 193.291 14.2582 188.569 11.0995C187.229 10.2658 186.573 9.28917 186.601 8.16952C186.643 6.49005 187.964 4.88247 190.563 3.3468C193.08 1.8891 195.538 1.19017 197.937 1.25001C199.217 1.28193 200.132 1.5048 200.681 1.91864C203.913 3.91983 206.777 6.19195 209.274 8.735C211.727 6.63551 214.658 4.62797 218.067 2.71236C219.039 2.25645 220.21 1.80552 221.582 1.35958C222.951 0.993609 224.236 0.825583 225.436 0.855502C226.555 0.883427 227.469 1.14629 228.177 1.6441Z" fill="#D63939"/>
</g>
<path d="M167.715 3.2854C168.316 2.41436 169.006 1.97602 169.786 1.97038C170.479 1.96536 171.174 2.26366 171.872 2.86529C172.57 3.46692 173.182 4.15585 173.707 4.93206C177.473 10.3649 181.922 14.3195 187.053 16.7958C188.532 17.5651 189.974 19.1147 191.377 21.4446C192.781 23.8611 193.491 26.1527 193.507 28.3193C193.521 30.2259 192.924 31.617 191.717 32.4924C186.717 36.1687 182.589 40.6187 179.334 45.8424C178.478 47.322 177.443 48.0661 176.23 48.0749C174.41 48.0881 172.623 46.7143 170.87 43.9536C169.204 41.279 168.361 38.6417 168.342 36.0417C168.332 34.6551 168.542 33.6569 168.971 33.0471C171.025 29.4788 173.385 26.2983 176.052 23.5056C173.693 20.9226 171.417 17.819 169.224 14.1948C168.697 13.1586 168.168 11.9057 167.637 10.4362C167.193 8.966 166.966 7.58094 166.957 6.28097C166.948 5.06767 167.201 4.06914 167.715 3.2854Z" fill="#D63939"/>
<g filter="url(#filter3_d)">
<path d="M168.812 62.9417C168.141 62.1238 167.911 61.3393 168.122 60.5882C168.308 59.9205 168.788 59.3347 169.559 58.8306C170.33 58.3266 171.161 57.9294 172.052 57.639C178.315 55.5227 183.346 52.3416 187.145 48.0954C188.294 46.887 190.181 45.9307 192.809 45.2264C195.519 44.5455 197.918 44.4972 200.004 45.0814C201.84 45.5956 203.012 46.5537 203.519 47.9558C205.669 53.7779 208.803 58.9757 212.923 63.5493C214.108 64.7811 214.537 65.9813 214.21 67.1496C213.719 68.9022 211.904 70.2391 208.766 71.1604C205.735 72.0215 202.968 72.1015 200.464 71.4004C199.129 71.0265 198.227 70.5491 197.76 69.9682C194.899 67.007 192.496 63.8589 190.55 60.5239C187.415 62.0761 183.803 63.4046 179.714 64.5094C178.572 64.7297 177.221 64.8916 175.663 64.995C174.127 65.015 172.733 64.8497 171.481 64.4991C170.313 64.1719 169.423 63.6528 168.812 62.9417Z" fill="#D63939"/>
</g>
<g filter="url(#filter4_d)">
<path d="M234.915 66.922C234.254 67.7485 233.535 68.1371 232.757 68.0876C232.065 68.0437 231.392 67.697 230.738 67.0477C230.085 66.3983 229.523 65.6679 229.054 64.8565C225.681 59.1714 221.522 54.9127 216.578 52.0804C215.157 51.2086 213.829 49.5611 212.593 47.138C211.363 44.6283 210.817 42.2924 210.954 40.13C211.075 38.2272 211.768 36.8818 213.034 36.0937C218.281 32.7795 222.713 28.632 226.329 23.6511C227.287 22.2356 228.372 21.5663 229.583 21.6432C231.399 21.7585 233.084 23.255 234.639 26.1326C236.112 28.9182 236.766 31.6084 236.601 34.2031C236.513 35.587 236.234 36.568 235.763 37.146C233.462 40.5604 230.883 43.5663 228.026 46.1639C230.197 48.9069 232.248 52.1634 234.179 55.9334C234.633 57.0042 235.072 58.2913 235.497 59.7946C235.837 61.2925 235.965 62.6901 235.883 63.9875C235.806 65.1984 235.483 66.1766 234.915 66.922Z" fill="#D63939"/>
</g>
<path d="M81.3 99.1C80.5 98.9667 79.8333 98.7 79.3 98.3C78.8333 97.9 78.6 97.4333 78.6 96.9C78.6 96.2333 78.9667 95.5667 79.7 94.9L90.2 85.4C91 84.6667 92.0333 84.0667 93.3 83.6C94.6333 83.1333 95.9 82.9 97.1 82.9C98.1667 82.9 99.0333 83.0667 99.7 83.4C102.3 84.6 105.367 86.6667 108.9 89.6L111.7 85.5C112.433 84.5 113.533 83.7 115 83.1C116.533 82.5 118.067 82.2 119.6 82.2C121 82.2 122.133 82.4667 123 83C123.933 83.4667 124.4 84.1667 124.4 85.1C124.4 85.9 124.033 86.8 123.3 87.8C122.1 89.6667 120.233 92.4 117.7 96L115.3 99.4C114.5 100.467 113.4 101.333 112 102C110.667 102.667 109.267 103 107.8 103C106.067 103 104.633 102.567 103.5 101.7C101.167 99.7667 99.9333 98.7333 99.8 98.6C96.4667 95.8667 94.2667 94.1333 93.2 93.4L90.5 95.6C89.4333 96.6 88.1333 97.4667 86.6 98.2C85.0667 98.8667 83.6333 99.2 82.3 99.2C81.8333 99.2 81.5 99.1667 81.3 99.1Z" fill="white"/>
<path d="M81.3 99.1L81.6162 98.1513L81.5418 98.1265L81.4644 98.1136L81.3 99.1ZM79.3 98.3L78.6492 99.0593L78.6739 99.0805L78.7 99.1L79.3 98.3ZM79.7 94.9L79.0291 94.1585L79.0273 94.1601L79.7 94.9ZM90.2 85.4L90.8709 86.1415L90.8757 86.1372L90.2 85.4ZM93.3 83.6L92.9697 82.6561L92.962 82.6588L92.9543 82.6617L93.3 83.6ZM99.7 83.4L99.2528 84.2944L99.2668 84.3014L99.2809 84.308L99.7 83.4ZM108.9 89.6L108.261 90.3694L109.106 91.071L109.726 90.164L108.9 89.6ZM111.7 85.5L110.894 84.9086L110.884 84.9222L110.874 84.936L111.7 85.5ZM115 83.1L114.636 82.1688L114.628 82.1715L114.621 82.1745L115 83.1ZM123 83L122.476 83.8517L122.513 83.8747L122.553 83.8944L123 83ZM123.3 87.8L122.494 87.2086L122.475 87.2334L122.459 87.2592L123.3 87.8ZM117.7 96L118.517 96.5767L118.518 96.5755L117.7 96ZM115.3 99.4L116.1 100L116.109 99.9885L116.117 99.9767L115.3 99.4ZM112 102L111.57 101.097L111.561 101.101L111.553 101.106L112 102ZM103.5 101.7L102.862 102.47L102.877 102.482L102.893 102.494L103.5 101.7ZM99.8 98.6L100.507 97.8929L100.472 97.858L100.434 97.8267L99.8 98.6ZM93.2 93.4L93.7665 92.576L93.1491 92.1515L92.5683 92.6248L93.2 93.4ZM90.5 95.6L89.8683 94.8248L89.8414 94.8467L89.8161 94.8705L90.5 95.6ZM86.6 98.2L86.9987 99.1171L87.0152 99.1099L87.0315 99.1021L86.6 98.2ZM81.4644 98.1136C80.7886 98.001 80.2803 97.7852 79.9 97.5L78.7 99.1C79.3864 99.6148 80.2114 99.9324 81.1356 100.086L81.4644 98.1136ZM79.9508 97.5407C79.6682 97.2985 79.6 97.0953 79.6 96.9H77.6C77.6 97.7713 77.9985 98.5015 78.6492 99.0593L79.9508 97.5407ZM79.6 96.9C79.6 96.6285 79.7457 96.2099 80.3727 95.6399L79.0273 94.1601C78.1876 94.9234 77.6 95.8381 77.6 96.9H79.6ZM80.3709 95.6415L90.8709 86.1415L89.5291 84.6585L79.0291 94.1585L80.3709 95.6415ZM90.8757 86.1372C91.5596 85.5103 92.4723 84.9706 93.6457 84.5383L92.9543 82.6617C91.5944 83.1627 90.4404 83.823 89.5243 84.6628L90.8757 86.1372ZM93.6304 84.5439C94.8759 84.1079 96.0304 83.9 97.1 83.9V81.9C95.7696 81.9 94.3908 82.1587 92.9697 82.6561L93.6304 84.5439ZM97.1 83.9C98.0738 83.9 98.7717 84.0539 99.2528 84.2944L100.147 82.5056C99.295 82.0795 98.2595 81.9 97.1 81.9V83.9ZM99.2809 84.308C101.769 85.4564 104.76 87.4625 108.261 90.3694L109.539 88.8306C105.974 85.8708 102.831 83.7436 100.119 82.492L99.2809 84.308ZM109.726 90.164L112.526 86.064L110.874 84.936L108.074 89.036L109.726 90.164ZM112.506 86.0914C113.104 85.2761 114.036 84.5749 115.379 84.0255L114.621 82.1745C113.031 82.8251 111.762 83.7239 110.894 84.9086L112.506 86.0914ZM115.364 84.0312C116.79 83.4733 118.2 83.2 119.6 83.2V81.2C117.933 81.2 116.276 81.5267 114.636 82.1688L115.364 84.0312ZM119.6 83.2C120.882 83.2 121.815 83.4452 122.476 83.8517L123.524 82.1483C122.451 81.4881 121.118 81.2 119.6 81.2V83.2ZM122.553 83.8944C122.901 84.0684 123.102 84.2554 123.218 84.4297C123.33 84.5977 123.4 84.8083 123.4 85.1H125.4C125.4 84.4583 125.237 83.8523 124.882 83.3203C124.532 82.7946 124.033 82.3982 123.447 82.1056L122.553 83.8944ZM123.4 85.1C123.4 85.5991 123.166 86.2919 122.494 87.2086L124.106 88.3914C124.901 87.3081 125.4 86.2009 125.4 85.1H123.4ZM122.459 87.2592C121.271 89.1077 119.414 91.8272 116.882 95.4245L118.518 96.5755C121.053 92.9728 122.929 90.2256 124.141 88.3408L122.459 87.2592ZM116.883 95.4233L114.483 98.8233L116.117 99.9767L118.517 96.5767L116.883 95.4233ZM114.5 98.8C113.812 99.7177 112.848 100.489 111.57 101.097L112.43 102.903C113.952 102.178 115.188 101.216 116.1 100L114.5 98.8ZM111.553 101.106C110.356 101.704 109.109 102 107.8 102V104C109.425 104 110.977 103.629 112.447 102.894L111.553 101.106ZM107.8 102C106.238 102 105.031 101.612 104.107 100.906L102.893 102.494C104.235 103.521 105.896 104 107.8 104V102ZM104.138 100.93C102.972 99.9637 102.082 99.2234 101.467 98.7085C101.16 98.4508 100.923 98.2511 100.756 98.1082C100.57 97.9498 100.506 97.8913 100.507 97.8929L99.0929 99.3071C99.2002 99.4144 99.5932 99.7476 100.183 100.242C100.802 100.76 101.695 101.503 102.862 102.47L104.138 100.93ZM100.434 97.8267C97.1088 95.1 94.8747 93.3378 93.7665 92.576L92.6335 94.224C93.6586 94.9288 95.8246 96.6334 99.1659 99.3733L100.434 97.8267ZM92.5683 92.6248L89.8683 94.8248L91.1317 96.3752L93.8317 94.1752L92.5683 92.6248ZM89.8161 94.8705C88.8352 95.79 87.624 96.6018 86.1685 97.2979L87.0315 99.1021C88.6426 98.3316 90.0314 97.41 91.1839 96.3295L89.8161 94.8705ZM86.2013 97.2829C84.7628 97.9083 83.466 98.2 82.3 98.2V100.2C83.8006 100.2 85.3705 99.825 86.9987 99.1171L86.2013 97.2829ZM82.3 98.2C82.0881 98.2 81.9231 98.1923 81.7995 98.18C81.7383 98.1738 81.6923 98.1671 81.6593 98.1609C81.6254 98.1545 81.6129 98.1502 81.6162 98.1513L80.9838 100.049C81.3493 100.171 81.8241 100.2 82.3 100.2V98.2Z" fill="black"/>
<defs>
<filter id="filter0_d" x="60.7" y="161.7" width="183.041" height="97.1" filterUnits="userSpaceOnUse" color-interpolation-filters="sRGB">
<feFlood flood-opacity="0" result="BackgroundImageFix"/>
<feColorMatrix in="SourceAlpha" type="matrix" values="0 0 0 0 0 0 0 0 0 0 0 0 0 0 0 0 0 0 127 0" result="hardAlpha"/>
<feOffset dy="4"/>
<feGaussianBlur stdDeviation="2"/>
<feComposite in2="hardAlpha" operator="out"/>
<feColorMatrix type="matrix" values="0 0 0 0 0 0 0 0 0 0 0 0 0 0 0 0 0 0 0.25 0"/>
<feBlend mode="normal" in2="BackgroundImageFix" result="effect1_dropShadow"/>
<feBlend mode="normal" in="SourceGraphic" in2="effect1_dropShadow" result="shape"/>
</filter>
<filter id="filter1_d" x="0" y="19" width="309" height="309" filterUnits="userSpaceOnUse" color-interpolation-filters="sRGB">
<feFlood flood-opacity="0" result="BackgroundImageFix"/>
<feColorMatrix in="SourceAlpha" type="matrix" values="0 0 0 0 0 0 0 0 0 0 0 0 0 0 0 0 0 0 127 0" result="hardAlpha"/>
<feOffset dy="4"/>
<feGaussianBlur stdDeviation="2"/>
<feComposite in2="hardAlpha" operator="out"/>
<feColorMatrix type="matrix" values="0 0 0 0 1 0 0 0 0 1 0 0 0 0 1 0 0 0 0.25 0"/>
<feBlend mode="normal" in2="BackgroundImageFix" result="effect1_dropShadow"/>
<feBlend mode="normal" in="SourceGraphic" in2="effect1_dropShadow" result="shape"/>
</filter>
<filter id="filter2_d" x="182.6" y="0.852112" width="50.7288" height="31.8471" filterUnits="userSpaceOnUse" color-interpolation-filters="sRGB">
<feFlood flood-opacity="0" result="BackgroundImageFix"/>
<feColorMatrix in="SourceAlpha" type="matrix" values="0 0 0 0 0 0 0 0 0 0 0 0 0 0 0 0 0 0 127 0" result="hardAlpha"/>
<feOffset dy="4"/>
<feGaussianBlur stdDeviation="2"/>
<feComposite in2="hardAlpha" operator="out"/>
<feColorMatrix type="matrix" values="0 0 0 0 0 0 0 0 0 0 0 0 0 0 0 0 0 0 0.25 0"/>
<feBlend mode="normal" in2="BackgroundImageFix" result="effect1_dropShadow"/>
<feBlend mode="normal" in="SourceGraphic" in2="effect1_dropShadow" result="shape"/>
</filter>
<filter id="filter3_d" x="164.046" y="44.6767" width="54.2695" height="35.1957" filterUnits="userSpaceOnUse" color-interpolation-filters="sRGB">
<feFlood flood-opacity="0" result="BackgroundImageFix"/>
<feColorMatrix in="SourceAlpha" type="matrix" values="0 0 0 0 0 0 0 0 0 0 0 0 0 0 0 0 0 0 127 0" result="hardAlpha"/>
<feOffset dy="4"/>
<feGaussianBlur stdDeviation="2"/>
<feComposite in2="hardAlpha" operator="out"/>
<feColorMatrix type="matrix" values="0 0 0 0 0 0 0 0 0 0 0 0 0 0 0 0 0 0 0.25 0"/>
<feBlend mode="normal" in2="BackgroundImageFix" result="effect1_dropShadow"/>
<feBlend mode="normal" in="SourceGraphic" in2="effect1_dropShadow" result="shape"/>
</filter>
<filter id="filter4_d" x="206.933" y="21.6373" width="33.6926" height="54.4545" filterUnits="userSpaceOnUse" color-interpolation-filters="sRGB">
<feFlood flood-opacity="0" result="BackgroundImageFix"/>
<feColorMatrix in="SourceAlpha" type="matrix" values="0 0 0 0 0 0 0 0 0 0 0 0 0 0 0 0 0 0 127 0" result="hardAlpha"/>
<feOffset dy="4"/>
<feGaussianBlur stdDeviation="2"/>
<feComposite in2="hardAlpha" operator="out"/>
<feColorMatrix type="matrix" values="0 0 0 0 0 0 0 0 0 0 0 0 0 0 0 0 0 0 0.25 0"/>
<feBlend mode="normal" in2="BackgroundImageFix" result="effect1_dropShadow"/>
<feBlend mode="normal" in="SourceGraphic" in2="effect1_dropShadow" result="shape"/>
</filter>
</defs>
</svg>
