<svg id="Capa_1" enable-background="new 0 0 512 512" height="512" viewBox="0 0 512 512" width="512" xmlns="http://www.w3.org/2000/svg"><g><g><path d="m440.915 512h-369.83c-11.046 0-20-8.954-20-20v-416.782l5-16.645h399.831l5 16.645v416.782c-.001 11.046-8.955 20-20.001 20z" fill="#407093"/></g><g><path d="m424.775 58.573v397.261c0 11.06-8.966 20.026-20.026 20.026h-353.664v16.115c0 11.06 8.966 20.026 20.026 20.026h369.78c11.06 0 20.026-8.966 20.026-20.026v-416.757l-5-16.645z" fill="#365e7d"/></g><g><path d="m440.89 0h-369.78c-11.06 0-20.025 8.966-20.025 20.026v55.192h409.831v-55.192c-.001-11.06-8.966-20.026-20.026-20.026z" fill="#b1e4f9"/></g><g><circle cx="93.873" cy="37.972" fill="#e28086" r="11.637"/></g><g><circle cx="135.552" cy="37.972" fill="#f4dd45" r="11.637"/></g><g><circle cx="177.23" cy="37.972" fill="#78d0b1" r="11.637"/></g><g><path d="m440.89 0h-16.115v75.218h36.14v-55.192c0-11.06-8.965-20.026-20.025-20.026z" fill="#75cef9"/></g><g><g><path d="m298.581 211.37c-2.595 0-5.119-1.346-6.51-3.756-2.074-3.592-.843-8.184 2.749-10.258l63.832-36.854-63.832-36.853c-3.592-2.074-4.823-6.667-2.749-10.258 2.073-3.593 6.664-4.823 10.258-2.749l75.096 43.356c2.323 1.342 3.755 3.82 3.755 6.503s-1.432 5.162-3.755 6.503l-75.096 43.357c-1.182.685-2.474 1.009-3.748 1.009z" fill="#efecef"/></g><g><path d="m211.416 211.37c-1.274 0-2.565-.325-3.748-1.007l-75.096-43.357c-2.323-1.342-3.755-3.82-3.755-6.503s1.432-5.162 3.755-6.503l75.096-43.356c3.59-2.073 8.185-.843 10.258 2.749 2.074 3.592.843 8.184-2.749 10.258l-63.832 36.853 63.832 36.854c3.592 2.074 4.823 6.667 2.749 10.258-1.39 2.408-3.914 3.754-6.51 3.754z" fill="#efecef"/></g><g><path d="m242.057 223.509c-.596 0-1.203-.071-1.808-.221-4.026-.995-6.483-5.066-5.488-9.093l27.035-109.38c.995-4.026 5.067-6.483 9.093-5.488s6.483 5.066 5.488 9.093l-27.035 109.38c-.846 3.42-3.912 5.709-7.285 5.709z" fill="#efecef"/></g></g><g><path d="m105.511 273.603h-17.267c-4.148 0-7.51-3.362-7.51-7.51s3.362-7.51 7.51-7.51h17.267c4.148 0 7.51 3.362 7.51 7.51s-3.362 7.51-7.51 7.51z" fill="#d5c6e4"/></g><g><path d="m207.796 273.603h-69.239c-4.148 0-7.51-3.362-7.51-7.51s3.362-7.51 7.51-7.51h69.239c4.148 0 7.51 3.362 7.51 7.51-.001 4.148-3.363 7.51-7.51 7.51z" fill="#75cef9"/></g><g><path d="m349.55 273.603h-35.816c-4.148 0-7.51-3.362-7.51-7.51s3.362-7.51 7.51-7.51h35.816c4.148 0 7.51 3.362 7.51 7.51-.001 4.148-3.362 7.51-7.51 7.51z" fill="#75cef9"/></g><g><path d="m207.796 370.987h-69.239c-4.148 0-7.51-3.362-7.51-7.51s3.362-7.51 7.51-7.51h69.239c4.148 0 7.51 3.362 7.51 7.51-.001 4.148-3.363 7.51-7.51 7.51z" fill="#75cef9"/></g><g><path d="m326.645 370.987h-81.808c-4.148 0-7.51-3.362-7.51-7.51s3.362-7.51 7.51-7.51h81.808c4.148 0 7.51 3.362 7.51 7.51s-3.362 7.51-7.51 7.51z" fill="#efecef"/></g><g><path d="m401.46 370.987h-37.367c-4.148 0-7.51-3.362-7.51-7.51s3.362-7.51 7.51-7.51h37.367c4.148 0 7.51 3.362 7.51 7.51s-3.362 7.51-7.51 7.51z" fill="#78d0b1"/></g><g><path d="m207.796 306.064h-34.62c-4.148 0-7.51-3.362-7.51-7.51s3.362-7.51 7.51-7.51h34.62c4.148 0 7.51 3.362 7.51 7.51-.001 4.149-3.363 7.51-7.51 7.51z" fill="#efecef"/></g><g><path d="m236.038 338.526h-62.862c-4.148 0-7.51-3.362-7.51-7.51s3.362-7.51 7.51-7.51h62.862c4.148 0 7.51 3.362 7.51 7.51-.001 4.148-3.362 7.51-7.51 7.51z" fill="#efecef"/></g><g><path d="m309.924 338.526h-36.213c-4.148 0-7.51-3.362-7.51-7.51s3.362-7.51 7.51-7.51h36.213c4.148 0 7.51 3.362 7.51 7.51-.001 4.148-3.362 7.51-7.51 7.51z" fill="#f4dd45"/></g><g><path d="m278.261 273.603h-34.62c-4.148 0-7.51-3.362-7.51-7.51s3.362-7.51 7.51-7.51h34.62c4.148 0 7.51 3.362 7.51 7.51s-3.362 7.51-7.51 7.51z" fill="#78d0b1"/></g><g><path d="m278.261 306.064h-34.62c-4.148 0-7.51-3.362-7.51-7.51s3.362-7.51 7.51-7.51h34.62c4.148 0 7.51 3.362 7.51 7.51 0 4.149-3.362 7.51-7.51 7.51z" fill="#78d0b1"/></g><g><path d="m207.796 403.448h-34.62c-4.148 0-7.51-3.362-7.51-7.51s3.362-7.51 7.51-7.51h34.62c4.148 0 7.51 3.362 7.51 7.51-.001 4.148-3.363 7.51-7.51 7.51z" fill="#ecb780"/></g><g><path d="m180.725 435.91h-42.168c-4.148 0-7.51-3.362-7.51-7.51s3.362-7.51 7.51-7.51h42.168c4.148 0 7.51 3.362 7.51 7.51-.001 4.148-3.362 7.51-7.51 7.51z" fill="#75cef9"/></g><g><path d="m249.487 435.91h-29.791c-4.148 0-7.51-3.362-7.51-7.51s3.362-7.51 7.51-7.51h29.791c4.148 0 7.51 3.362 7.51 7.51-.001 4.148-3.362 7.51-7.51 7.51z" fill="#efecef"/></g><g><path d="m278.261 403.448h-34.62c-4.148 0-7.51-3.362-7.51-7.51s3.362-7.51 7.51-7.51h34.62c4.148 0 7.51 3.362 7.51 7.51s-3.362 7.51-7.51 7.51z" fill="#efecef"/></g><g><path d="m207.796 468.37h-34.62c-4.148 0-7.51-3.362-7.51-7.51s3.362-7.51 7.51-7.51h34.62c4.148 0 7.51 3.362 7.51 7.51s-3.363 7.51-7.51 7.51z" fill="#75cef9"/></g><g><path d="m323.818 468.37h-80.176c-4.148 0-7.51-3.362-7.51-7.51s3.362-7.51 7.51-7.51h80.176c4.148 0 7.51 3.362 7.51 7.51s-3.363 7.51-7.51 7.51z" fill="#efecef"/></g><g><path d="m400.856 468.37h-37.417c-4.148 0-7.51-3.362-7.51-7.51s3.362-7.51 7.51-7.51h37.417c4.148 0 7.51 3.362 7.51 7.51s-3.362 7.51-7.51 7.51z" fill="#f4dd45"/></g><g><path d="m105.511 306.064h-17.267c-4.148 0-7.51-3.362-7.51-7.51s3.362-7.51 7.51-7.51h17.267c4.148 0 7.51 3.362 7.51 7.51 0 4.149-3.362 7.51-7.51 7.51z" fill="#d5c6e4"/></g><g><path d="m105.511 338.526h-17.267c-4.148 0-7.51-3.362-7.51-7.51s3.362-7.51 7.51-7.51h17.267c4.148 0 7.51 3.362 7.51 7.51s-3.362 7.51-7.51 7.51z" fill="#d5c6e4"/></g><g><path d="m105.511 370.987h-17.267c-4.148 0-7.51-3.362-7.51-7.51s3.362-7.51 7.51-7.51h17.267c4.148 0 7.51 3.362 7.51 7.51s-3.362 7.51-7.51 7.51z" fill="#d5c6e4"/></g><g><path d="m105.511 403.448h-17.267c-4.148 0-7.51-3.362-7.51-7.51s3.362-7.51 7.51-7.51h17.267c4.148 0 7.51 3.362 7.51 7.51s-3.362 7.51-7.51 7.51z" fill="#d5c6e4"/></g><g><path d="m105.511 435.91h-17.267c-4.148 0-7.51-3.362-7.51-7.51s3.362-7.51 7.51-7.51h17.267c4.148 0 7.51 3.362 7.51 7.51s-3.362 7.51-7.51 7.51z" fill="#d5c6e4"/></g><g><path d="m105.511 468.37h-17.267c-4.148 0-7.51-3.362-7.51-7.51s3.362-7.51 7.51-7.51h17.267c4.148 0 7.51 3.362 7.51 7.51s-3.362 7.51-7.51 7.51z" fill="#d5c6e4"/></g></g></svg>