<svg id="Capa_1" enable-background="new 0 0 512 512" height="512" viewBox="0 0 512 512" width="512" xmlns="http://www.w3.org/2000/svg"><g><path d="m507 339.366 5-9.222v-247.71c0-16.569-13.432-30-30-30h-452c-16.569 0-30 13.431-30 30v247.709l5 9.222h502z" fill="#e28086"/><path d="m507 339.366 5-9.222v-247.71c0-16.569-13.432-30-30-30h-3.202v286.931h28.202z" fill="#dd636e"/><g><path d="m348.877 477.769-5.558-5.166c-13.107-12.181-20.554-29.267-20.554-47.161v-55.923h-133.53v55.923c0 17.894-7.447 34.98-20.554 47.161l-5.558 5.165h185.754z" fill="#d5c6e4"/></g><g><path d="m287.552 369.519v56.177c0 19.587 7.838 38.312 21.681 52.073h39.644l-5.558-5.166c-13.107-12.181-20.554-29.267-20.554-47.161v-55.923z" fill="#beb9dd"/></g><g><path d="m0 330.144v36.375c0 16.569 13.431 30 30 30h452c16.569 0 30-13.431 30-30v-36.375z" fill="#efecef"/></g><g><path d="m361.778 485.269h-211.556c-4.142 0-7.5-3.357-7.5-7.5s3.358-7.5 7.5-7.5h211.557c4.143 0 7.5 3.357 7.5 7.5s-3.358 7.5-7.501 7.5z" fill="#efecef"/></g><g><path d="m478.798 330.144v21.524c0 6.433-5.215 11.649-11.649 11.649h-467.149v3.202c0 16.569 13.431 30 30 30h452c16.569 0 30-13.431 30-30v-36.375z" fill="#dddaec"/></g><g><circle cx="255.924" cy="363.081" fill="#beb9dd" r="11.812"/></g><g><path d="m135.499 95.198-98.924 171.342c-6.543 11.333 1.636 25.5 14.722 25.5h197.849c13.087 0 21.266-14.167 14.722-25.5l-98.924-171.342c-6.543-11.333-22.902-11.333-29.445 0z" fill="#f4dd45"/></g><g><path d="m263.868 266.54-98.924-171.342c-6.543-11.333-22.902-11.333-29.445 0l-12.571 21.773 101.077 175.069h25.141c13.086 0 21.266-14.167 14.722-25.5z" fill="#ecc32e"/></g><g><path d="m249.146 299.54h-197.849c-8.857 0-16.79-4.58-21.218-12.25-4.428-7.671-4.428-16.83 0-24.5l98.924-171.342c4.428-7.671 12.361-12.251 21.218-12.251 8.857.001 16.789 4.58 21.217 12.251l98.924 171.342c4.429 7.67 4.429 16.828.001 24.499s-12.359 12.251-21.217 12.251zm-98.924-205.342c-1.649 0-5.752.463-8.228 4.751l-98.924 171.341c-2.475 4.287-.825 8.071 0 9.5.825 1.428 3.277 4.75 8.228 4.75h197.849c4.951 0 7.403-3.322 8.227-4.75.825-1.429 2.476-5.213 0-9.5l-98.925-171.341c-2.475-4.288-6.579-4.75-8.227-4.751z" fill="#fff9c1"/></g><g><circle cx="150.221" cy="258.327" fill="#2b4d66" r="8.277"/></g><g><path d="m150.298 234.206c-4.142 0-7.5-3.357-7.5-7.5v-84.938c0-4.143 3.358-7.5 7.5-7.5s7.5 3.357 7.5 7.5v84.938c0 4.143-3.358 7.5-7.5 7.5z" fill="#2b4d66"/></g><g><path d="m462.797 291.711h-133.184c-8.284 0-15-6.716-15-15v-99.778h158.184l5 8.042v91.736c0 8.284-6.716 15-15 15z" fill="#407093"/></g><g><path d="m453.113 176.933v75.094c0 8.284-6.716 15-15 15h-123.5v9.684c0 8.284 6.716 15 15 15h133.184c8.284 0 15-6.716 15-15v-91.736l-5-8.042z" fill="#365e7d"/></g><g><path d="m477.797 184.975h-163.184v-51.858c0-8.284 6.716-15 15-15h133.184c8.284 0 15 6.716 15 15z" fill="#efecef"/></g><g><path d="m462.797 118.117h-9.684v66.858h24.684v-51.858c0-8.284-6.716-15-15-15z" fill="#dddaec"/></g><g><path d="m401.801 253.037h-52.129c-4.143 0-7.5-3.357-7.5-7.5s3.357-7.5 7.5-7.5h52.129c4.143 0 7.5 3.357 7.5 7.5s-3.358 7.5-7.5 7.5z" fill="#75cef9"/></g><g><path d="m443.5 253.037h-12.167c-4.143 0-7.5-3.357-7.5-7.5s3.357-7.5 7.5-7.5h12.167c4.143 0 7.5 3.357 7.5 7.5s-3.358 7.5-7.5 7.5z" fill="#78d0b1"/></g><g><path d="m404.184 200.325h-133.184c-8.284 0-15-6.716-15-15v-91.736l5-6.891h153.184l5 6.891v91.736c0 8.284-6.716 15-15 15z" fill="#407093"/></g><g><path d="m394.5 86.698v73.943c0 8.284-6.716 15-15 15h-123.5v9.684c0 8.284 6.716 15 15 15h133.184c8.284 0 15-6.716 15-15v-91.736l-6-6.891z" fill="#365e7d"/></g><g><path d="m419.184 93.589h-163.184v-51.858c0-8.284 6.716-15 15-15h133.184c8.284 0 15 6.716 15 15z" fill="#efecef"/></g><g><path d="m404.184 26.731h-9.684v66.858h24.684v-51.858c0-8.284-6.716-15-15-15z" fill="#dddaec"/></g><path d="m346.178 60.67 5.951-5.951c2.929-2.93 2.929-7.678 0-10.607-2.93-2.928-7.678-2.928-10.607 0l-5.951 5.951-5.951-5.951c-2.93-2.928-7.678-2.928-10.607 0-2.929 2.93-2.929 7.678 0 10.607l5.951 5.951-5.951 5.951c-2.929 2.93-2.929 7.678 0 10.607 2.93 2.928 7.677 2.928 10.607 0l5.951-5.951 5.951 5.951c2.93 2.928 7.677 2.928 10.607 0 2.929-2.93 2.929-7.678 0-10.607z" fill="#beb9dd"/><g><path d="m337.619 131.37h-47.586c-4.143 0-7.5-3.357-7.5-7.5s3.357-7.5 7.5-7.5h47.586c4.143 0 7.5 3.357 7.5 7.5s-3.357 7.5-7.5 7.5z" fill="#f4dd45"/></g><g><path d="m314.613 161.652h-23.555c-4.143 0-7.5-3.357-7.5-7.5s3.357-7.5 7.5-7.5h23.555c4.143 0 7.5 3.357 7.5 7.5s-3.357 7.5-7.5 7.5z" fill="#75cef9"/></g><g><path d="m384.887 161.652h-40.741c-4.143 0-7.5-3.357-7.5-7.5s3.357-7.5 7.5-7.5h40.741c4.143 0 7.5 3.357 7.5 7.5s-3.358 7.5-7.5 7.5z" fill="#efecef"/></g></g></svg>